<svg xmlns="http://www.w3.org/2000/svg" xmlns:xlink="http://www.w3.org/1999/xlink" version="1.1" class="marks" width="971" height="550" viewBox="0 0 971 550"><rect width="971" height="550" fill="white"/><g fill="none" stroke-miterlimit="10" transform="translate(65,45)"><g class="mark-group role-frame root" role="graphics-object" aria-roledescription="group mark container"><g transform="translate(0,0)"><path class="background" aria-hidden="true" d="M0.5,0.5h900v450h-900Z" stroke="#ddd" stroke-opacity="0"/><g><g class="mark-group role-axis" aria-hidden="true"><g transform="translate(0.5,0.5)"><path class="background" aria-hidden="true" d="M0,0h0v0h0Z" pointer-events="none"/><g><g class="mark-rule role-axis-grid" pointer-events="none"><line transform="translate(0,450)" x2="900" y2="0" stroke="#ddd" stroke-width="1" opacity="1"/><line transform="translate(0,400)" x2="900" y2="0" stroke="#ddd" stroke-width="1" opacity="1"/><line transform="translate(0,350)" x2="900" y2="0" stroke="#ddd" stroke-width="1" opacity="1"/><line transform="translate(0,300)" x2="900" y2="0" stroke="#ddd" stroke-width="1" opacity="1"/><line transform="translate(0,250)" x2="900" y2="0" stroke="#ddd" stroke-width="1" opacity="1"/><line transform="translate(0,200)" x2="900" y2="0" stroke="#ddd" stroke-width="1" opacity="1"/><line transform="translate(0,150)" x2="900" y2="0" stroke="#ddd" stroke-width="1" opacity="1"/><line transform="translate(0,100)" x2="900" y2="0" stroke="#ddd" stroke-width="1" opacity="1"/><line transform="translate(0,50)" x2="900" y2="0" stroke="#ddd" stroke-width="1" opacity="1"/><line transform="translate(0,0)" x2="900" y2="0" stroke="#ddd" stroke-width="1" opacity="1"/></g></g><path class="foreground" aria-hidden="true" d="" pointer-events="none" display="none"/></g></g><g class="mark-group role-axis" role="graphics-symbol" aria-roledescription="axis" aria-label="X-axis titled 'Calendar Year' for a discrete scale with 25 values: 2025, 2026, 2027, 2028, 2029, ending with 2049"><g transform="translate(0.5,450.5)"><path class="background" aria-hidden="true" d="M0,0h0v0h0Z" pointer-events="none"/><g><g class="mark-rule role-axis-tick" pointer-events="none"><line transform="translate(18,0)" x2="0" y2="5" stroke="#000000" stroke-width="1" opacity="1"/><line transform="translate(54,0)" x2="0" y2="5" stroke="#000000" stroke-width="1" opacity="1"/><line transform="translate(90,0)" x2="0" y2="5" stroke="#000000" stroke-width="1" opacity="1"/><line transform="translate(126,0)" x2="0" y2="5" stroke="#000000" stroke-width="1" opacity="1"/><line transform="translate(162,0)" x2="0" y2="5" stroke="#000000" stroke-width="1" opacity="1"/><line transform="translate(198,0)" x2="0" y2="5" stroke="#000000" stroke-width="1" opacity="1"/><line transform="translate(234,0)" x2="0" y2="5" stroke="#000000" stroke-width="1" opacity="1"/><line transform="translate(270,0)" x2="0" y2="5" stroke="#000000" stroke-width="1" opacity="1"/><line transform="translate(306,0)" x2="0" y2="5" stroke="#000000" stroke-width="1" opacity="1"/><line transform="translate(342,0)" x2="0" y2="5" stroke="#000000" stroke-width="1" opacity="1"/><line transform="translate(378,0)" x2="0" y2="5" stroke="#000000" stroke-width="1" opacity="1"/><line transform="translate(414,0)" x2="0" y2="5" stroke="#000000" stroke-width="1" opacity="1"/><line transform="translate(450,0)" x2="0" y2="5" stroke="#000000" stroke-width="1" opacity="1"/><line transform="translate(486,0)" x2="0" y2="5" stroke="#000000" stroke-width="1" opacity="1"/><line transform="translate(522,0)" x2="0" y2="5" stroke="#000000" stroke-width="1" opacity="1"/><line transform="translate(558,0)" x2="0" y2="5" stroke="#000000" stroke-width="1" opacity="1"/><line transform="translate(594,0)" x2="0" y2="5" stroke="#000000" stroke-width="1" opacity="1"/><line transform="translate(630,0)" x2="0" y2="5" stroke="#000000" stroke-width="1" opacity="1"/><line transform="translate(666,0)" x2="0" y2="5" stroke="#000000" stroke-width="1" opacity="1"/><line transform="translate(702,0)" x2="0" y2="5" stroke="#000000" stroke-width="1" opacity="1"/><line transform="translate(738,0)" x2="0" y2="5" stroke="#000000" stroke-width="1" opacity="1"/><line transform="translate(774,0)" x2="0" y2="5" stroke="#000000" stroke-width="1" opacity="1"/><line transform="translate(810,0)" x2="0" y2="5" stroke="#000000" stroke-width="1" opacity="1"/><line transform="translate(846,0)" x2="0" y2="5" stroke="#000000" stroke-width="1" opacity="1"/><line transform="translate(882,0)" x2="0" y2="5" stroke="#000000" stroke-width="1" opacity="1"/></g><g class="mark-text role-axis-label" pointer-events="none"><text text-anchor="middle" transform="translate(18,21)" font-family="sans-serif" font-size="14px" fill="#000000" opacity="1">2025</text><text text-anchor="middle" transform="translate(54,21)" font-family="sans-serif" font-size="14px" fill="#000000" opacity="1"/><text text-anchor="middle" transform="translate(90,21)" font-family="sans-serif" font-size="14px" fill="#000000" opacity="1"/><text text-anchor="middle" transform="translate(126,21)" font-family="sans-serif" font-size="14px" fill="#000000" opacity="1"/><text text-anchor="middle" transform="translate(162,21)" font-family="sans-serif" font-size="14px" fill="#000000" opacity="1"/><text text-anchor="middle" transform="translate(198,21)" font-family="sans-serif" font-size="14px" fill="#000000" opacity="1">2030</text><text text-anchor="middle" transform="translate(234,21)" font-family="sans-serif" font-size="14px" fill="#000000" opacity="1"/><text text-anchor="middle" transform="translate(270,21)" font-family="sans-serif" font-size="14px" fill="#000000" opacity="1"/><text text-anchor="middle" transform="translate(306,21)" font-family="sans-serif" font-size="14px" fill="#000000" opacity="1"/><text text-anchor="middle" transform="translate(342,21)" font-family="sans-serif" font-size="14px" fill="#000000" opacity="1"/><text text-anchor="middle" transform="translate(378,21)" font-family="sans-serif" font-size="14px" fill="#000000" opacity="1">2035</text><text text-anchor="middle" transform="translate(414,21)" font-family="sans-serif" font-size="14px" fill="#000000" opacity="1"/><text text-anchor="middle" transform="translate(450,21)" font-family="sans-serif" font-size="14px" fill="#000000" opacity="1"/><text text-anchor="middle" transform="translate(486,21)" font-family="sans-serif" font-size="14px" fill="#000000" opacity="1"/><text text-anchor="middle" transform="translate(522,21)" font-family="sans-serif" font-size="14px" fill="#000000" opacity="1"/><text text-anchor="middle" transform="translate(558,21)" font-family="sans-serif" font-size="14px" fill="#000000" opacity="1">2040</text><text text-anchor="middle" transform="translate(594,21)" font-family="sans-serif" font-size="14px" fill="#000000" opacity="1"/><text text-anchor="middle" transform="translate(630,21)" font-family="sans-serif" font-size="14px" fill="#000000" opacity="1"/><text text-anchor="middle" transform="translate(666,21)" font-family="sans-serif" font-size="14px" fill="#000000" opacity="1"/><text text-anchor="middle" transform="translate(702,21)" font-family="sans-serif" font-size="14px" fill="#000000" opacity="1"/><text text-anchor="middle" transform="translate(738,21)" font-family="sans-serif" font-size="14px" fill="#000000" opacity="1">2045</text><text text-anchor="middle" transform="translate(774,21)" font-family="sans-serif" font-size="14px" fill="#000000" opacity="1"/><text text-anchor="middle" transform="translate(810,21)" font-family="sans-serif" font-size="14px" fill="#000000" opacity="1"/><text text-anchor="middle" transform="translate(846,21)" font-family="sans-serif" font-size="14px" fill="#000000" opacity="1"/><text text-anchor="middle" transform="translate(882,21)" font-family="sans-serif" font-size="14px" fill="#000000" opacity="1"/></g><g class="mark-rule role-axis-domain" pointer-events="none"><line transform="translate(0,0)" x2="900" y2="0" stroke="#000000" stroke-width="1" opacity="1"/></g><g class="mark-text role-axis-title" pointer-events="none"><text text-anchor="middle" transform="translate(450,47)" font-family="sans-serif" font-size="16px" font-weight="bold" fill="#000000" opacity="1">Calendar Year</text></g></g><path class="foreground" aria-hidden="true" d="" pointer-events="none" display="none"/></g></g><g class="mark-group role-axis" role="graphics-symbol" aria-roledescription="axis" aria-label="Y-axis titled 'Cumulative Storage (Mt)' for a linear scale with values from 0 to 450"><g transform="translate(0.5,0.5)"><path class="background" aria-hidden="true" d="M0,0h0v0h0Z" pointer-events="none"/><g><g class="mark-rule role-axis-tick" pointer-events="none"><line transform="translate(0,450)" x2="-5" y2="0" stroke="#000000" stroke-width="1" opacity="1"/><line transform="translate(0,400)" x2="-5" y2="0" stroke="#000000" stroke-width="1" opacity="1"/><line transform="translate(0,350)" x2="-5" y2="0" stroke="#000000" stroke-width="1" opacity="1"/><line transform="translate(0,300)" x2="-5" y2="0" stroke="#000000" stroke-width="1" opacity="1"/><line transform="translate(0,250)" x2="-5" y2="0" stroke="#000000" stroke-width="1" opacity="1"/><line transform="translate(0,200)" x2="-5" y2="0" stroke="#000000" stroke-width="1" opacity="1"/><line transform="translate(0,150)" x2="-5" y2="0" stroke="#000000" stroke-width="1" opacity="1"/><line transform="translate(0,100)" x2="-5" y2="0" stroke="#000000" stroke-width="1" opacity="1"/><line transform="translate(0,50)" x2="-5" y2="0" stroke="#000000" stroke-width="1" opacity="1"/><line transform="translate(0,0)" x2="-5" y2="0" stroke="#000000" stroke-width="1" opacity="1"/></g><g class="mark-text role-axis-label" pointer-events="none"><text text-anchor="end" transform="translate(-10,454)" font-family="sans-serif" font-size="14px" fill="#000000" opacity="1">0</text><text text-anchor="end" transform="translate(-10,404)" font-family="sans-serif" font-size="14px" fill="#000000" opacity="1">50</text><text text-anchor="end" transform="translate(-10,354)" font-family="sans-serif" font-size="14px" fill="#000000" opacity="1">100</text><text text-anchor="end" transform="translate(-10,304.00000000000006)" font-family="sans-serif" font-size="14px" fill="#000000" opacity="1">150</text><text text-anchor="end" transform="translate(-10,254)" font-family="sans-serif" font-size="14px" fill="#000000" opacity="1">200</text><text text-anchor="end" transform="translate(-10,204)" font-family="sans-serif" font-size="14px" fill="#000000" opacity="1">250</text><text text-anchor="end" transform="translate(-10,154.00000000000003)" font-family="sans-serif" font-size="14px" fill="#000000" opacity="1">300</text><text text-anchor="end" transform="translate(-10,104)" font-family="sans-serif" font-size="14px" fill="#000000" opacity="1">350</text><text text-anchor="end" transform="translate(-10,54.00000000000002)" font-family="sans-serif" font-size="14px" fill="#000000" opacity="1">400</text><text text-anchor="end" transform="translate(-10,4)" font-family="sans-serif" font-size="14px" fill="#000000" opacity="1">450</text></g><g class="mark-rule role-axis-domain" pointer-events="none"><line transform="translate(0,450)" x2="0" y2="-450" stroke="#000000" stroke-width="1" opacity="1"/></g><g class="mark-text role-axis-title" pointer-events="none"><text text-anchor="middle" transform="translate(-43.3583984375,225) rotate(-90) translate(0,-3)" font-family="sans-serif" font-size="16px" font-weight="bold" fill="#000000" opacity="1">Cumulative Storage (Mt)</text></g></g><path class="foreground" aria-hidden="true" d="" pointer-events="none" display="none"/></g></g><g class="mark-area role-mark layer_0_marks" role="graphics-object" aria-roledescription="area mark container"><path aria-label="Calendar Year: 2025; Cumulative Storage (Mt): 16.785; calendar_year: 2025; cumulative_storage_used_mt: 16.785; storage_remaining_mt: 403.215" role="graphics-symbol" aria-roledescription="area mark" d="M18,433.215L54,416.43L90,399.645L126,382.86L162,366.075L198,349.29L234,332.505L270,315.72L306,298.935L342,282.15L378,265.446L414,248.742L450,232.038L486,215.334L522,198.63L558,185.778L594,172.926L630,160.074L666,147.222L702,134.37L738,130.59L774,126.81L810,123.03L846,119.25L882,115.47L882,450L846,450L810,450L774,450L738,450L702,450L666,450L630,450L594,450L558,450L522,450L486,450L450,450L414,450L378,450L342,450L306,450L270,450L234,450L198,450L162,450L126,450L90,450L54,450L18,450Z" fill="steelblue" opacity="0.6"/></g><g class="mark-rule role-mark layer_1_marks" role="graphics-object" aria-roledescription="rule mark container"><line aria-label="limit: 420" role="graphics-symbol" aria-roledescription="rule mark" transform="translate(900,29.999999999999993)" x2="-900" y2="0" stroke="red" stroke-dasharray="5,5"/></g><g class="mark-text role-mark layer_2_marks" role="graphics-object" aria-roledescription="text mark container"><text aria-label="x: 2025; limit: 420; text: Limit: 420.0 Mt" role="graphics-symbol" aria-roledescription="text mark" text-anchor="start" transform="translate(23,21.999999999999993)" font-family="sans-serif" font-size="14px" font-weight="bold" fill="red">Limit: 420.0 Mt</text></g><g class="mark-text role-mark layer_3_marks" role="graphics-object" aria-roledescription="text mark container"><text aria-label="calendar_year: 2049; cumulative_storage_used_mt: 334.53; text: Used: 334.5 Mt" role="graphics-symbol" aria-roledescription="text mark" text-anchor="end" transform="translate(882,97.47000000000023)" font-family="sans-serif" font-size="14px" font-weight="bold" fill="#000000">Used: 334.5 Mt</text></g><g class="mark-group role-title"><g transform="translate(-59.3583984375,-40)"><path class="background" aria-hidden="true" d="M0,0h0v0h0Z" pointer-events="none"/><g><g class="mark-text role-title-text" role="graphics-symbol" aria-roledescription="title" aria-label="Title text 'Cumulative Storage Used vs. Capacity'" pointer-events="none"><text text-anchor="start" transform="translate(0,14)" font-family="sans-serif" font-size="18px" font-weight="bold" fill="#000000" opacity="1">Cumulative Storage Used vs. Capacity</text></g></g><path class="foreground" aria-hidden="true" d="" pointer-events="none" display="none"/></g></g></g><path class="foreground" aria-hidden="true" d="" display="none"/></g></g></g></svg>