<svg xmlns="http://www.w3.org/2000/svg" xmlns:xlink="http://www.w3.org/1999/xlink" version="1.1" class="marks" width="1037" height="350" viewBox="0 0 1037 350"><rect width="1037" height="350" fill="#ffffff"/><g fill="none" stroke-miterlimit="10" transform="translate(50,32)"><g class="mark-group role-frame root" role="graphics-object" aria-roledescription="group mark container"><g transform="translate(0,0)"><path class="background" aria-hidden="true" d="M0,0h986v255h-986Z" stroke-opacity="0" stroke-width="0"/><g><g class="mark-group role-axis" aria-hidden="true"><g transform="translate(0.5,0.5)"><path class="background" aria-hidden="true" d="M0,0h0v0h0Z" pointer-events="none"/><g><g class="mark-rule role-axis-grid" pointer-events="none"><line transform="translate(0,255)" x2="986" y2="0" stroke="#e6eaf1" stroke-width="1" opacity="1"/><line transform="translate(0,227)" x2="986" y2="0" stroke="#e6eaf1" stroke-width="1" opacity="1"/><line transform="translate(0,198)" x2="986" y2="0" stroke="#e6eaf1" stroke-width="1" opacity="1"/><line transform="translate(0,170)" x2="986" y2="0" stroke="#e6eaf1" stroke-width="1" opacity="1"/><line transform="translate(0,142)" x2="986" y2="0" stroke="#e6eaf1" stroke-width="1" opacity="1"/><line transform="translate(0,113)" x2="986" y2="0" stroke="#e6eaf1" stroke-width="1" opacity="1"/><line transform="translate(0,85)" x2="986" y2="0" stroke="#e6eaf1" stroke-width="1" opacity="1"/><line transform="translate(0,57)" x2="986" y2="0" stroke="#e6eaf1" stroke-width="1" opacity="1"/><line transform="translate(0,28)" x2="986" y2="0" stroke="#e6eaf1" stroke-width="1" opacity="1"/><line transform="translate(0,0)" x2="986" y2="0" stroke="#e6eaf1" stroke-width="1" opacity="1"/></g></g><path class="foreground" aria-hidden="true" d="" pointer-events="none" display="none"/></g></g><g class="mark-group role-axis" role="graphics-symbol" aria-roledescription="axis" aria-label="X-axis titled 'Calendar Year' for a discrete scale with 25 values: 2025, 2026, 2027, 2028, 2029, ending with 2049"><g transform="translate(0.5,255.5)"><path class="background" aria-hidden="true" d="M0,0h0v0h0Z" pointer-events="none"/><g><g class="mark-text role-axis-label" pointer-events="none"><text text-anchor="start" transform="translate(18.22,15)" font-family="&quot;Source Sans&quot;, sans-serif" font-size="13px" font-style="normal" font-weight="400" fill="#808495" opacity="1">2025</text><text text-anchor="middle" transform="translate(58.66,15)" font-family="&quot;Source Sans&quot;, sans-serif" font-size="13px" font-style="normal" font-weight="400" fill="#808495" opacity="0">2026</text><text text-anchor="middle" transform="translate(98.1,15)" font-family="&quot;Source Sans&quot;, sans-serif" font-size="13px" font-style="normal" font-weight="400" fill="#808495" opacity="1">2027</text><text text-anchor="middle" transform="translate(137.54,15)" font-family="&quot;Source Sans&quot;, sans-serif" font-size="13px" font-style="normal" font-weight="400" fill="#808495" opacity="0">2028</text><text text-anchor="middle" transform="translate(176.98,15)" font-family="&quot;Source Sans&quot;, sans-serif" font-size="13px" font-style="normal" font-weight="400" fill="#808495" opacity="1">2029</text><text text-anchor="middle" transform="translate(216.42,15)" font-family="&quot;Source Sans&quot;, sans-serif" font-size="13px" font-style="normal" font-weight="400" fill="#808495" opacity="0">2030</text><text text-anchor="middle" transform="translate(255.86,15)" font-family="&quot;Source Sans&quot;, sans-serif" font-size="13px" font-style="normal" font-weight="400" fill="#808495" opacity="1">2031</text><text text-anchor="middle" transform="translate(295.29999999999995,15)" font-family="&quot;Source Sans&quot;, sans-serif" font-size="13px" font-style="normal" font-weight="400" fill="#808495" opacity="0">2032</text><text text-anchor="middle" transform="translate(334.74,15)" font-family="&quot;Source Sans&quot;, sans-serif" font-size="13px" font-style="normal" font-weight="400" fill="#808495" opacity="1">2033</text><text text-anchor="middle" transform="translate(374.17999999999995,15)" font-family="&quot;Source Sans&quot;, sans-serif" font-size="13px" font-style="normal" font-weight="400" fill="#808495" opacity="0">2034</text><text text-anchor="middle" transform="translate(413.62,15)" font-family="&quot;Source Sans&quot;, sans-serif" font-size="13px" font-style="normal" font-weight="400" fill="#808495" opacity="1">2035</text><text text-anchor="middle" transform="translate(453.05999999999995,15)" font-family="&quot;Source Sans&quot;, sans-serif" font-size="13px" font-style="normal" font-weight="400" fill="#808495" opacity="0">2036</text><text text-anchor="middle" transform="translate(492.5,15)" font-family="&quot;Source Sans&quot;, sans-serif" font-size="13px" font-style="normal" font-weight="400" fill="#808495" opacity="1">2037</text><text text-anchor="middle" transform="translate(531.94,15)" font-family="&quot;Source Sans&quot;, sans-serif" font-size="13px" font-style="normal" font-weight="400" fill="#808495" opacity="0">2038</text><text text-anchor="middle" transform="translate(571.38,15)" font-family="&quot;Source Sans&quot;, sans-serif" font-size="13px" font-style="normal" font-weight="400" fill="#808495" opacity="1">2039</text><text text-anchor="middle" transform="translate(610.8199999999999,15)" font-family="&quot;Source Sans&quot;, sans-serif" font-size="13px" font-style="normal" font-weight="400" fill="#808495" opacity="0">2040</text><text text-anchor="middle" transform="translate(650.26,15)" font-family="&quot;Source Sans&quot;, sans-serif" font-size="13px" font-style="normal" font-weight="400" fill="#808495" opacity="1">2041</text><text text-anchor="middle" transform="translate(689.7,15)" font-family="&quot;Source Sans&quot;, sans-serif" font-size="13px" font-style="normal" font-weight="400" fill="#808495" opacity="0">2042</text><text text-anchor="middle" transform="translate(729.14,15)" font-family="&quot;Source Sans&quot;, sans-serif" font-size="13px" font-style="normal" font-weight="400" fill="#808495" opacity="1">2043</text><text text-anchor="middle" transform="translate(768.5799999999999,15)" font-family="&quot;Source Sans&quot;, sans-serif" font-size="13px" font-style="normal" font-weight="400" fill="#808495" opacity="0">2044</text><text text-anchor="middle" transform="translate(808.02,15)" font-family="&quot;Source Sans&quot;, sans-serif" font-size="13px" font-style="normal" font-weight="400" fill="#808495" opacity="1">2045</text><text text-anchor="middle" transform="translate(847.46,15)" font-family="&quot;Source Sans&quot;, sans-serif" font-size="13px" font-style="normal" font-weight="400" fill="#808495" opacity="0">2046</text><text text-anchor="middle" transform="translate(886.9,15)" font-family="&quot;Source Sans&quot;, sans-serif" font-size="13px" font-style="normal" font-weight="400" fill="#808495" opacity="1">2047</text><text text-anchor="middle" transform="translate(926.3399999999999,15)" font-family="&quot;Source Sans&quot;, sans-serif" font-size="13px" font-style="normal" font-weight="400" fill="#808495" opacity="0">2048</text><text text-anchor="middle" transform="translate(965.78,15)" font-family="&quot;Source Sans&quot;, sans-serif" font-size="13px" font-style="normal" font-weight="400" fill="#808495" opacity="1">2049</text></g><g class="mark-text role-axis-title" pointer-events="none"><text text-anchor="middle" transform="translate(493,40)" font-family="&quot;Source Sans&quot;, sans-serif" font-size="15px" font-style="normal" font-weight="400" fill="#808495" opacity="1">Calendar Year</text></g></g><path class="foreground" aria-hidden="true" d="" pointer-events="none" display="none"/></g></g><g class="mark-group role-axis" role="graphics-symbol" aria-roledescription="axis" aria-label="Y-axis titled 'Cumulative Storage (Mt)' for a linear scale with values from 0 to 450"><g transform="translate(0.5,0.5)"><path class="background" aria-hidden="true" d="M0,0h0v0h0Z" pointer-events="none"/><g><g class="mark-text role-axis-label" pointer-events="none"><text text-anchor="end" transform="translate(-5,253)" font-family="&quot;Source Sans&quot;, sans-serif" font-size="13px" font-style="normal" font-weight="400" fill="#808495" opacity="1">0</text><text text-anchor="end" transform="translate(-5,230.66666666666666)" font-family="&quot;Source Sans&quot;, sans-serif" font-size="13px" font-style="normal" font-weight="400" fill="#808495" opacity="1">50</text><text text-anchor="end" transform="translate(-5,202.33333333333334)" font-family="&quot;Source Sans&quot;, sans-serif" font-size="13px" font-style="normal" font-weight="400" fill="#808495" opacity="1">100</text><text text-anchor="end" transform="translate(-5,174.00000000000003)" font-family="&quot;Source Sans&quot;, sans-serif" font-size="13px" font-style="normal" font-weight="400" fill="#808495" opacity="1">150</text><text text-anchor="end" transform="translate(-5,145.66666666666669)" font-family="&quot;Source Sans&quot;, sans-serif" font-size="13px" font-style="normal" font-weight="400" fill="#808495" opacity="1">200</text><text text-anchor="end" transform="translate(-5,117.33333333333333)" font-family="&quot;Source Sans&quot;, sans-serif" font-size="13px" font-style="normal" font-weight="400" fill="#808495" opacity="1">250</text><text text-anchor="end" transform="translate(-5,89.00000000000001)" font-family="&quot;Source Sans&quot;, sans-serif" font-size="13px" font-style="normal" font-weight="400" fill="#808495" opacity="1">300</text><text text-anchor="end" transform="translate(-5,60.666666666666664)" font-family="&quot;Source Sans&quot;, sans-serif" font-size="13px" font-style="normal" font-weight="400" fill="#808495" opacity="1">350</text><text text-anchor="end" transform="translate(-5,32.33333333333334)" font-family="&quot;Source Sans&quot;, sans-serif" font-size="13px" font-style="normal" font-weight="400" fill="#808495" opacity="1">400</text><text text-anchor="end" transform="translate(-5,9)" font-family="&quot;Source Sans&quot;, sans-serif" font-size="13px" font-style="normal" font-weight="400" fill="#808495" opacity="1">450</text></g><g class="mark-text role-axis-title" pointer-events="none"><text text-anchor="middle" transform="translate(-34.38299560546875,127.5) rotate(-90) translate(0,-3)" font-family="&quot;Source Sans&quot;, sans-serif" font-size="15px" font-style="normal" font-weight="400" fill="#808495" opacity="1">Cumulative Storage (Mt)</text></g></g><path class="foreground" aria-hidden="true" d="" pointer-events="none" display="none"/></g></g><g class="mark-area role-mark layer_0_marks" role="graphics-object" aria-roledescription="area mark container"><path aria-label="Calendar Year: 2025; Cumulative Storage (Mt): 16.785; calendar_year: 2025; cumulative_storage_used_mt: 16.785; storage_remaining_mt: 403.215" role="graphics-symbol" aria-roledescription="area mark" d="M19.72,245.489L59.16,235.977L98.6,226.466L138.04,216.954L177.48,207.443L216.92,197.931L256.36,188.42L295.8,178.908L335.24,169.397L374.68,159.885L414.12,150.419L453.56,140.954L493,131.488L532.44,122.023L571.88,112.557L611.32,105.274L650.76,97.991L690.2,90.709L729.64,83.426L769.08,76.143L808.52,74.001L847.96,71.859L887.4,69.717L926.84,67.575L966.28,65.433L966.28,255L926.84,255L887.4,255L847.96,255L808.52,255L769.08,255L729.64,255L690.2,255L650.76,255L611.32,255L571.88,255L532.44,255L493,255L453.56,255L414.12,255L374.68,255L335.24,255L295.8,255L256.36,255L216.92,255L177.48,255L138.04,255L98.6,255L59.16,255L19.72,255Z" fill="steelblue" opacity="0.6"/></g><g class="mark-rule role-mark view_224c9e85d374f812_1_marks" role="graphics-object" aria-roledescription="rule mark container"><line aria-label="Calendar Year: 2025; calendar_year: 2025; cumulative_storage_used_mt: 16.785; storage_remaining_mt: 403.215" role="graphics-symbol" aria-roledescription="rule mark" transform="translate(19.72,0)" x2="0" y2="255" stroke="black" stroke-width="40" opacity="0"/><line aria-label="Calendar Year: 2026; calendar_year: 2026; cumulative_storage_used_mt: 33.57; storage_remaining_mt: 386.43" role="graphics-symbol" aria-roledescription="rule mark" transform="translate(59.16,0)" x2="0" y2="255" stroke="black" stroke-width="40" opacity="0"/><line aria-label="Calendar Year: 2027; calendar_year: 2027; cumulative_storage_used_mt: 50.355; storage_remaining_mt: 369.645" role="graphics-symbol" aria-roledescription="rule mark" transform="translate(98.6,0)" x2="0" y2="255" stroke="black" stroke-width="40" opacity="0"/><line aria-label="Calendar Year: 2028; calendar_year: 2028; cumulative_storage_used_mt: 67.14; storage_remaining_mt: 352.86" role="graphics-symbol" aria-roledescription="rule mark" transform="translate(138.04,0)" x2="0" y2="255" stroke="black" stroke-width="40" opacity="0"/><line aria-label="Calendar Year: 2029; calendar_year: 2029; cumulative_storage_used_mt: 83.925; storage_remaining_mt: 336.075" role="graphics-symbol" aria-roledescription="rule mark" transform="translate(177.48,0)" x2="0" y2="255" stroke="black" stroke-width="40" opacity="0"/><line aria-label="Calendar Year: 2030; calendar_year: 2030; cumulative_storage_used_mt: 100.71; storage_remaining_mt: 319.29" role="graphics-symbol" aria-roledescription="rule mark" transform="translate(216.92,0)" x2="0" y2="255" stroke="black" stroke-width="40" opacity="0"/><line aria-label="Calendar Year: 2031; calendar_year: 2031; cumulative_storage_used_mt: 117.495; storage_remaining_mt: 302.505" role="graphics-symbol" aria-roledescription="rule mark" transform="translate(256.36,0)" x2="0" y2="255" stroke="black" stroke-width="40" opacity="0"/><line aria-label="Calendar Year: 2032; calendar_year: 2032; cumulative_storage_used_mt: 134.28; storage_remaining_mt: 285.72" role="graphics-symbol" aria-roledescription="rule mark" transform="translate(295.79999999999995,0)" x2="0" y2="255" stroke="black" stroke-width="40" opacity="0"/><line aria-label="Calendar Year: 2033; calendar_year: 2033; cumulative_storage_used_mt: 151.065; storage_remaining_mt: 268.935" role="graphics-symbol" aria-roledescription="rule mark" transform="translate(335.24,0)" x2="0" y2="255" stroke="black" stroke-width="40" opacity="0"/><line aria-label="Calendar Year: 2034; calendar_year: 2034; cumulative_storage_used_mt: 167.85; storage_remaining_mt: 252.15" role="graphics-symbol" aria-roledescription="rule mark" transform="translate(374.67999999999995,0)" x2="0" y2="255" stroke="black" stroke-width="40" opacity="0"/><line aria-label="Calendar Year: 2035; calendar_year: 2035; cumulative_storage_used_mt: 184.554; storage_remaining_mt: 235.446" role="graphics-symbol" aria-roledescription="rule mark" transform="translate(414.12,0)" x2="0" y2="255" stroke="black" stroke-width="40" opacity="0"/><line aria-label="Calendar Year: 2036; calendar_year: 2036; cumulative_storage_used_mt: 201.258; storage_remaining_mt: 218.742" role="graphics-symbol" aria-roledescription="rule mark" transform="translate(453.55999999999995,0)" x2="0" y2="255" stroke="black" stroke-width="40" opacity="0"/><line aria-label="Calendar Year: 2037; calendar_year: 2037; cumulative_storage_used_mt: 217.962; storage_remaining_mt: 202.038" role="graphics-symbol" aria-roledescription="rule mark" transform="translate(493,0)" x2="0" y2="255" stroke="black" stroke-width="40" opacity="0"/><line aria-label="Calendar Year: 2038; calendar_year: 2038; cumulative_storage_used_mt: 234.666; storage_remaining_mt: 185.334" role="graphics-symbol" aria-roledescription="rule mark" transform="translate(532.44,0)" x2="0" y2="255" stroke="black" stroke-width="40" opacity="0"/><line aria-label="Calendar Year: 2039; calendar_year: 2039; cumulative_storage_used_mt: 251.37; storage_remaining_mt: 168.63" role="graphics-symbol" aria-roledescription="rule mark" transform="translate(571.88,0)" x2="0" y2="255" stroke="black" stroke-width="40" opacity="0"/><line aria-label="Calendar Year: 2040; calendar_year: 2040; cumulative_storage_used_mt: 264.222; storage_remaining_mt: 155.778" role="graphics-symbol" aria-roledescription="rule mark" transform="translate(611.3199999999999,0)" x2="0" y2="255" stroke="black" stroke-width="40" opacity="0"/><line aria-label="Calendar Year: 2041; calendar_year: 2041; cumulative_storage_used_mt: 277.074; storage_remaining_mt: 142.926" role="graphics-symbol" aria-roledescription="rule mark" transform="translate(650.76,0)" x2="0" y2="255" stroke="black" stroke-width="40" opacity="0"/><line aria-label="Calendar Year: 2042; calendar_year: 2042; cumulative_storage_used_mt: 289.926; storage_remaining_mt: 130.074" role="graphics-symbol" aria-roledescription="rule mark" transform="translate(690.2,0)" x2="0" y2="255" stroke="black" stroke-width="40" opacity="0"/><line aria-label="Calendar Year: 2043; calendar_year: 2043; cumulative_storage_used_mt: 302.778; storage_remaining_mt: 117.222" role="graphics-symbol" aria-roledescription="rule mark" transform="translate(729.64,0)" x2="0" y2="255" stroke="black" stroke-width="40" opacity="0"/><line aria-label="Calendar Year: 2044; calendar_year: 2044; cumulative_storage_used_mt: 315.63; storage_remaining_mt: 104.37" role="graphics-symbol" aria-roledescription="rule mark" transform="translate(769.0799999999999,0)" x2="0" y2="255" stroke="black" stroke-width="40" opacity="0"/><line aria-label="Calendar Year: 2045; calendar_year: 2045; cumulative_storage_used_mt: 319.41; storage_remaining_mt: 100.59" role="graphics-symbol" aria-roledescription="rule mark" transform="translate(808.52,0)" x2="0" y2="255" stroke="black" stroke-width="40" opacity="0"/><line aria-label="Calendar Year: 2046; calendar_year: 2046; cumulative_storage_used_mt: 323.19; storage_remaining_mt: 96.81" role="graphics-symbol" aria-roledescription="rule mark" transform="translate(847.96,0)" x2="0" y2="255" stroke="black" stroke-width="40" opacity="0"/><line aria-label="Calendar Year: 2047; calendar_year: 2047; cumulative_storage_used_mt: 326.97; storage_remaining_mt: 93.03" role="graphics-symbol" aria-roledescription="rule mark" transform="translate(887.4,0)" x2="0" y2="255" stroke="black" stroke-width="40" opacity="0"/><line aria-label="Calendar Year: 2048; calendar_year: 2048; cumulative_storage_used_mt: 330.75; storage_remaining_mt: 89.25" role="graphics-symbol" aria-roledescription="rule mark" transform="translate(926.8399999999999,0)" x2="0" y2="255" stroke="black" stroke-width="40" opacity="0"/><line aria-label="Calendar Year: 2049; calendar_year: 2049; cumulative_storage_used_mt: 334.53; storage_remaining_mt: 85.47" role="graphics-symbol" aria-roledescription="rule mark" transform="translate(966.28,0)" x2="0" y2="255" stroke="black" stroke-width="40" opacity="0"/></g><g class="mark-path role-mark view_224c9e85d374f812_1_voronoi" aria-hidden="true"><path transform="translate(0,0)" d="M0,255L0,0L39.4400060124228,0L39.440098250770646,255Z" stroke-width="0.35"/><path transform="translate(0,0)" d="M78.87999796451948,0L78.8799667376137,255L39.440098250770646,255L39.4400060124228,0Z" stroke-width="0.35"/><path transform="translate(0,0)" d="M118.31999467668147,0L118.31991301008532,255L78.8799667376137,255L78.87999796451948,0Z" stroke-width="0.35"/><path transform="translate(0,0)" d="M118.31991301008532,255L118.31999467668147,0L157.76000383766566,0L157.76006271242454,255Z" stroke-width="0.35"/><path transform="translate(0,0)" d="M197.20000402409497,0L197.2000657589201,255L157.76006271242454,255L157.76000383766566,0Z" stroke-width="0.35"/><path transform="translate(0,0)" d="M236.63999479999248,0L236.6399150251471,255L197.2000657589201,255L197.20000402409497,0Z" stroke-width="0.35"/><path transform="translate(0,0)" d="M276.0799977363468,0L276.07996300897696,255L236.6399150251471,255L236.63999479999248,0Z" stroke-width="0.35"/><path transform="translate(0,0)" d="M276.07996300897696,255L276.0799977363468,0L315.52000596635634,0L315.5200974979855,255Z" stroke-width="0.35"/><path transform="translate(0,0)" d="M354.9600002437695,0L354.96000398350986,255L315.5200974979855,255L315.52000596635634,0Z" stroke-width="0.35"/><path transform="translate(0,0)" d="M394.3999939511163,0L394.39990115341203,255L354.96000398350986,255L354.9600002437695,0Z" stroke-width="0.35"/><path transform="translate(0,0)" d="M394.39990115341203,255L394.3999939511163,0L433.8400018040536,0L433.84002948057105,255Z" stroke-width="0.35"/><path transform="translate(0,0)" d="M473.28000543813,0L473.2800888660831,255L433.84002948057105,255L433.8400018040536,0Z" stroke-width="0.35"/><path transform="translate(0,0)" d="M512.7199963548894,0L512.719940434175,255L473.2800888660831,255L473.28000543813,0Z" stroke-width="0.35"/><path transform="translate(0,0)" d="M512.719940434175,255L512.7199963548894,0L552.1599957959083,0L552.1599312996987,255Z" stroke-width="0.35"/><path transform="translate(0,0)" d="M552.1599312996987,255L552.1599957959083,0L591.600005068386,0L591.600082823989,255Z" stroke-width="0.35"/><path transform="translate(0,0)" d="M631.0400024882131,0L631.0400406606215,255L591.600082823989,255L591.600005068386,0Z" stroke-width="0.35"/><path transform="translate(0,0)" d="M631.0400406606215,255L631.0400024882131,0L670.4799940892389,0L670.4799034105109,255Z" stroke-width="0.35"/><path transform="translate(0,0)" d="M670.4799034105109,255L670.4799940892389,0L709.9199995128507,0L709.9199920393493,255Z" stroke-width="0.35"/><path transform="translate(0,0)" d="M709.9199920393493,255L709.9199995128507,0L749.3600060756831,0L749.3600992845287,255Z" stroke-width="0.35"/><path transform="translate(0,0)" d="M788.7999984302525,0L788.7999743482944,255L749.3600992845287,255L749.3600060756831,0Z" stroke-width="0.35"/><path transform="translate(0,0)" d="M788.7999743482944,255L788.7999984302525,0L828.239994455749,0L828.2399093997602,255Z" stroke-width="0.35"/><path transform="translate(0,0)" d="M828.2399093997602,255L828.239994455749,0L867.6800034467286,0L867.6800563240066,255Z" stroke-width="0.35"/><path transform="translate(0,0)" d="M867.6800563240066,255L867.6800034467286,0L907.1200043773775,0L907.1200715320155,255Z" stroke-width="0.35"/><path transform="translate(0,0)" d="M946.5599950713272,0L946.5599194591082,255L907.1200715320155,255L907.1200043773775,0Z" stroke-width="0.35"/><path transform="translate(0,0)" d="M946.5599194591082,255L946.5599950713272,0L986,0L986,255Z" stroke-width="0.35"/></g><g class="mark-rule role-mark layer_2_marks" role="graphics-object" aria-roledescription="rule mark container" pointer-events="none"><line aria-label="limit: 420" role="graphics-symbol" aria-roledescription="rule mark" transform="translate(986,16.999999999999996)" x2="-986" y2="0" stroke="red" stroke-dasharray="5,5"/></g><g class="mark-rule role-mark layer_3_marks" role="graphics-object" aria-roledescription="rule mark container" pointer-events="none"><line aria-label="Calendar Year: 2025" role="graphics-symbol" aria-roledescription="rule mark" transform="translate(19.72,0)" x2="0" y2="255" stroke="silver" stroke-width="2" opacity="0"/><line aria-label="Calendar Year: 2026" role="graphics-symbol" aria-roledescription="rule mark" transform="translate(59.16,0)" x2="0" y2="255" stroke="silver" stroke-width="2" opacity="0"/><line aria-label="Calendar Year: 2027" role="graphics-symbol" aria-roledescription="rule mark" transform="translate(98.6,0)" x2="0" y2="255" stroke="silver" stroke-width="2" opacity="0"/><line aria-label="Calendar Year: 2028" role="graphics-symbol" aria-roledescription="rule mark" transform="translate(138.04,0)" x2="0" y2="255" stroke="silver" stroke-width="2" opacity="0"/><line aria-label="Calendar Year: 2029" role="graphics-symbol" aria-roledescription="rule mark" transform="translate(177.48,0)" x2="0" y2="255" stroke="silver" stroke-width="2" opacity="0"/><line aria-label="Calendar Year: 2030" role="graphics-symbol" aria-roledescription="rule mark" transform="translate(216.92,0)" x2="0" y2="255" stroke="silver" stroke-width="2" opacity="0"/><line aria-label="Calendar Year: 2031" role="graphics-symbol" aria-roledescription="rule mark" transform="translate(256.36,0)" x2="0" y2="255" stroke="silver" stroke-width="2" opacity="0"/><line aria-label="Calendar Year: 2032" role="graphics-symbol" aria-roledescription="rule mark" transform="translate(295.79999999999995,0)" x2="0" y2="255" stroke="silver" stroke-width="2" opacity="0"/><line aria-label="Calendar Year: 2033" role="graphics-symbol" aria-roledescription="rule mark" transform="translate(335.24,0)" x2="0" y2="255" stroke="silver" stroke-width="2" opacity="0"/><line aria-label="Calendar Year: 2034" role="graphics-symbol" aria-roledescription="rule mark" transform="translate(374.67999999999995,0)" x2="0" y2="255" stroke="silver" stroke-width="2" opacity="0"/><line aria-label="Calendar Year: 2035" role="graphics-symbol" aria-roledescription="rule mark" transform="translate(414.12,0)" x2="0" y2="255" stroke="silver" stroke-width="2" opacity="0"/><line aria-label="Calendar Year: 2036" role="graphics-symbol" aria-roledescription="rule mark" transform="translate(453.55999999999995,0)" x2="0" y2="255" stroke="silver" stroke-width="2" opacity="0"/><line aria-label="Calendar Year: 2037" role="graphics-symbol" aria-roledescription="rule mark" transform="translate(493,0)" x2="0" y2="255" stroke="silver" stroke-width="2" opacity="0"/><line aria-label="Calendar Year: 2038" role="graphics-symbol" aria-roledescription="rule mark" transform="translate(532.44,0)" x2="0" y2="255" stroke="silver" stroke-width="2" opacity="0"/><line aria-label="Calendar Year: 2039" role="graphics-symbol" aria-roledescription="rule mark" transform="translate(571.88,0)" x2="0" y2="255" stroke="silver" stroke-width="2" opacity="0"/><line aria-label="Calendar Year: 2040" role="graphics-symbol" aria-roledescription="rule mark" transform="translate(611.3199999999999,0)" x2="0" y2="255" stroke="silver" stroke-width="2" opacity="0"/><line aria-label="Calendar Year: 2041" role="graphics-symbol" aria-roledescription="rule mark" transform="translate(650.76,0)" x2="0" y2="255" stroke="silver" stroke-width="2" opacity="0"/><line aria-label="Calendar Year: 2042" role="graphics-symbol" aria-roledescription="rule mark" transform="translate(690.2,0)" x2="0" y2="255" stroke="silver" stroke-width="2" opacity="0"/><line aria-label="Calendar Year: 2043" role="graphics-symbol" aria-roledescription="rule mark" transform="translate(729.64,0)" x2="0" y2="255" stroke="silver" stroke-width="2" opacity="0"/><line aria-label="Calendar Year: 2044" role="graphics-symbol" aria-roledescription="rule mark" transform="translate(769.0799999999999,0)" x2="0" y2="255" stroke="silver" stroke-width="2" opacity="0"/><line aria-label="Calendar Year: 2045" role="graphics-symbol" aria-roledescription="rule mark" transform="translate(808.52,0)" x2="0" y2="255" stroke="silver" stroke-width="2" opacity="0"/><line aria-label="Calendar Year: 2046" role="graphics-symbol" aria-roledescription="rule mark" transform="translate(847.96,0)" x2="0" y2="255" stroke="silver" stroke-width="2" opacity="0"/><line aria-label="Calendar Year: 2047" role="graphics-symbol" aria-roledescription="rule mark" transform="translate(887.4,0)" x2="0" y2="255" stroke="silver" stroke-width="2" opacity="0"/><line aria-label="Calendar Year: 2048" role="graphics-symbol" aria-roledescription="rule mark" transform="translate(926.8399999999999,0)" x2="0" y2="255" stroke="silver" stroke-width="2" opacity="0"/><line aria-label="Calendar Year: 2049" role="graphics-symbol" aria-roledescription="rule mark" transform="translate(966.28,0)" x2="0" y2="255" stroke="silver" stroke-width="2" opacity="0"/></g><g class="mark-symbol role-mark layer_4_marks" role="graphics-object" aria-roledescription="symbol mark container" pointer-events="none"><path aria-label="Calendar Year: 2025; cumulative_storage_used_mt: 16.785" role="graphics-symbol" aria-roledescription="circle" transform="translate(19.72,245.4885)" d="M3.873,0A3.873,3.873,0,1,1,-3.873,0A3.873,3.873,0,1,1,3.873,0" fill="white" stroke="steelblue" stroke-width="2" opacity="0"/><path aria-label="Calendar Year: 2026; cumulative_storage_used_mt: 33.57" role="graphics-symbol" aria-roledescription="circle" transform="translate(59.16,235.977)" d="M3.873,0A3.873,3.873,0,1,1,-3.873,0A3.873,3.873,0,1,1,3.873,0" fill="white" stroke="steelblue" stroke-width="2" opacity="0"/><path aria-label="Calendar Year: 2027; cumulative_storage_used_mt: 50.355" role="graphics-symbol" aria-roledescription="circle" transform="translate(98.6,226.4655)" d="M3.873,0A3.873,3.873,0,1,1,-3.873,0A3.873,3.873,0,1,1,3.873,0" fill="white" stroke="steelblue" stroke-width="2" opacity="0"/><path aria-label="Calendar Year: 2028; cumulative_storage_used_mt: 67.14" role="graphics-symbol" aria-roledescription="circle" transform="translate(138.04,216.954)" d="M3.873,0A3.873,3.873,0,1,1,-3.873,0A3.873,3.873,0,1,1,3.873,0" fill="white" stroke="steelblue" stroke-width="2" opacity="0"/><path aria-label="Calendar Year: 2029; cumulative_storage_used_mt: 83.925" role="graphics-symbol" aria-roledescription="circle" transform="translate(177.48,207.4425)" d="M3.873,0A3.873,3.873,0,1,1,-3.873,0A3.873,3.873,0,1,1,3.873,0" fill="white" stroke="steelblue" stroke-width="2" opacity="0"/><path aria-label="Calendar Year: 2030; cumulative_storage_used_mt: 100.71" role="graphics-symbol" aria-roledescription="circle" transform="translate(216.92,197.931)" d="M3.873,0A3.873,3.873,0,1,1,-3.873,0A3.873,3.873,0,1,1,3.873,0" fill="white" stroke="steelblue" stroke-width="2" opacity="0"/><path aria-label="Calendar Year: 2031; cumulative_storage_used_mt: 117.495" role="graphics-symbol" aria-roledescription="circle" transform="translate(256.36,188.4195)" d="M3.873,0A3.873,3.873,0,1,1,-3.873,0A3.873,3.873,0,1,1,3.873,0" fill="white" stroke="steelblue" stroke-width="2" opacity="0"/><path aria-label="Calendar Year: 2032; cumulative_storage_used_mt: 134.28" role="graphics-symbol" aria-roledescription="circle" transform="translate(295.79999999999995,178.908)" d="M3.873,0A3.873,3.873,0,1,1,-3.873,0A3.873,3.873,0,1,1,3.873,0" fill="white" stroke="steelblue" stroke-width="2" opacity="0"/><path aria-label="Calendar Year: 2033; cumulative_storage_used_mt: 151.065" role="graphics-symbol" aria-roledescription="circle" transform="translate(335.24,169.3965)" d="M3.873,0A3.873,3.873,0,1,1,-3.873,0A3.873,3.873,0,1,1,3.873,0" fill="white" stroke="steelblue" stroke-width="2" opacity="0"/><path aria-label="Calendar Year: 2034; cumulative_storage_used_mt: 167.85" role="graphics-symbol" aria-roledescription="circle" transform="translate(374.67999999999995,159.885)" d="M3.873,0A3.873,3.873,0,1,1,-3.873,0A3.873,3.873,0,1,1,3.873,0" fill="white" stroke="steelblue" stroke-width="2" opacity="0"/><path aria-label="Calendar Year: 2035; cumulative_storage_used_mt: 184.554" role="graphics-symbol" aria-roledescription="circle" transform="translate(414.12,150.4194)" d="M3.873,0A3.873,3.873,0,1,1,-3.873,0A3.873,3.873,0,1,1,3.873,0" fill="white" stroke="steelblue" stroke-width="2" opacity="0"/><path aria-label="Calendar Year: 2036; cumulative_storage_used_mt: 201.258" role="graphics-symbol" aria-roledescription="circle" transform="translate(453.55999999999995,140.95379999999997)" d="M3.873,0A3.873,3.873,0,1,1,-3.873,0A3.873,3.873,0,1,1,3.873,0" fill="white" stroke="steelblue" stroke-width="2" opacity="0"/><path aria-label="Calendar Year: 2037; cumulative_storage_used_mt: 217.962" role="graphics-symbol" aria-roledescription="circle" transform="translate(493,131.4882)" d="M3.873,0A3.873,3.873,0,1,1,-3.873,0A3.873,3.873,0,1,1,3.873,0" fill="white" stroke="steelblue" stroke-width="2" opacity="0"/><path aria-label="Calendar Year: 2038; cumulative_storage_used_mt: 234.666" role="graphics-symbol" aria-roledescription="circle" transform="translate(532.44,122.02259999999998)" d="M3.873,0A3.873,3.873,0,1,1,-3.873,0A3.873,3.873,0,1,1,3.873,0" fill="white" stroke="steelblue" stroke-width="2" opacity="0"/><path aria-label="Calendar Year: 2039; cumulative_storage_used_mt: 251.37" role="graphics-symbol" aria-roledescription="circle" transform="translate(571.88,112.55699999999997)" d="M3.873,0A3.873,3.873,0,1,1,-3.873,0A3.873,3.873,0,1,1,3.873,0" fill="white" stroke="steelblue" stroke-width="2" opacity="0"/><path aria-label="Calendar Year: 2040; cumulative_storage_used_mt: 264.222" role="graphics-symbol" aria-roledescription="circle" transform="translate(611.3199999999999,105.27419999999996)" d="M3.873,0A3.873,3.873,0,1,1,-3.873,0A3.873,3.873,0,1,1,3.873,0" fill="white" stroke="steelblue" stroke-width="2" opacity="0"/><path aria-label="Calendar Year: 2041; cumulative_storage_used_mt: 277.074" role="graphics-symbol" aria-roledescription="circle" transform="translate(650.76,97.99139999999998)" d="M3.873,0A3.873,3.873,0,1,1,-3.873,0A3.873,3.873,0,1,1,3.873,0" fill="white" stroke="steelblue" stroke-width="2" opacity="0"/><path aria-label="Calendar Year: 2042; cumulative_storage_used_mt: 289.926" role="graphics-symbol" aria-roledescription="circle" transform="translate(690.2,90.7086)" d="M3.873,0A3.873,3.873,0,1,1,-3.873,0A3.873,3.873,0,1,1,3.873,0" fill="white" stroke="steelblue" stroke-width="2" opacity="0"/><path aria-label="Calendar Year: 2043; cumulative_storage_used_mt: 302.778" role="graphics-symbol" aria-roledescription="circle" transform="translate(729.64,83.42580000000002)" d="M3.873,0A3.873,3.873,0,1,1,-3.873,0A3.873,3.873,0,1,1,3.873,0" fill="white" stroke="steelblue" stroke-width="2" opacity="0"/><path aria-label="Calendar Year: 2044; cumulative_storage_used_mt: 315.63" role="graphics-symbol" aria-roledescription="circle" transform="translate(769.0799999999999,76.14300000000003)" d="M3.873,0A3.873,3.873,0,1,1,-3.873,0A3.873,3.873,0,1,1,3.873,0" fill="white" stroke="steelblue" stroke-width="2" opacity="0"/><path aria-label="Calendar Year: 2045; cumulative_storage_used_mt: 319.41" role="graphics-symbol" aria-roledescription="circle" transform="translate(808.52,74.00100000000006)" d="M3.873,0A3.873,3.873,0,1,1,-3.873,0A3.873,3.873,0,1,1,3.873,0" fill="white" stroke="steelblue" stroke-width="2" opacity="0"/><path aria-label="Calendar Year: 2046; cumulative_storage_used_mt: 323.19" role="graphics-symbol" aria-roledescription="circle" transform="translate(847.96,71.85900000000007)" d="M3.873,0A3.873,3.873,0,1,1,-3.873,0A3.873,3.873,0,1,1,3.873,0" fill="white" stroke="steelblue" stroke-width="2" opacity="0"/><path aria-label="Calendar Year: 2047; cumulative_storage_used_mt: 326.97" role="graphics-symbol" aria-roledescription="circle" transform="translate(887.4,69.71700000000008)" d="M3.873,0A3.873,3.873,0,1,1,-3.873,0A3.873,3.873,0,1,1,3.873,0" fill="white" stroke="steelblue" stroke-width="2" opacity="0"/><path aria-label="Calendar Year: 2048; cumulative_storage_used_mt: 330.75" role="graphics-symbol" aria-roledescription="circle" transform="translate(926.8399999999999,67.57500000000009)" d="M3.873,0A3.873,3.873,0,1,1,-3.873,0A3.873,3.873,0,1,1,3.873,0" fill="white" stroke="steelblue" stroke-width="2" opacity="0"/><path aria-label="Calendar Year: 2049; cumulative_storage_used_mt: 334.53" role="graphics-symbol" aria-roledescription="circle" transform="translate(966.28,65.43300000000012)" d="M3.873,0A3.873,3.873,0,1,1,-3.873,0A3.873,3.873,0,1,1,3.873,0" fill="white" stroke="steelblue" stroke-width="2" opacity="0"/></g><g class="mark-group role-title"><g transform="translate(-49.38299560546875,-32)"><path class="background" aria-hidden="true" d="M0,0h0v0h0Z" pointer-events="none"/><g><g class="mark-text role-title-text" role="graphics-symbol" aria-roledescription="title" aria-label="Title text 'Cumulative Storage Used vs. Capacity'" pointer-events="none"><text text-anchor="start" transform="translate(0,13)" font-family="&quot;Source Sans&quot;, sans-serif" font-size="16px" font-weight="bold" fill="#31333F" opacity="1">Cumulative Storage Used vs. Capacity</text></g></g><path class="foreground" aria-hidden="true" d="" pointer-events="none" display="none"/></g></g></g><path class="foreground" aria-hidden="true" d="" display="none"/></g></g></g></svg>