<svg xmlns="http://www.w3.org/2000/svg" xmlns:xlink="http://www.w3.org/1999/xlink" version="1.1" class="marks" width="924" height="543" viewBox="0 0 924 543"><rect width="924" height="543" fill="white"/><g fill="none" stroke-miterlimit="10" transform="translate(218,38)"><g class="mark-group role-frame root" role="graphics-object" aria-roledescription="group mark container"><g transform="translate(0,0)"><path class="background" aria-hidden="true" d="M0.5,0.5h700v450h-700Z" stroke="#ddd" stroke-opacity="0"/><g><g class="mark-group role-axis" aria-hidden="true"><g transform="translate(0.5,450.5)"><path class="background" aria-hidden="true" d="M0,0h0v0h0Z" pointer-events="none"/><g><g class="mark-rule role-axis-grid" pointer-events="none"><line transform="translate(0,0)" x2="0" y2="-450" stroke="#ddd" stroke-width="1" opacity="1"/><line transform="translate(39,0)" x2="0" y2="-450" stroke="#ddd" stroke-width="1" opacity="1"/><line transform="translate(78,0)" x2="0" y2="-450" stroke="#ddd" stroke-width="1" opacity="1"/><line transform="translate(117,0)" x2="0" y2="-450" stroke="#ddd" stroke-width="1" opacity="1"/><line transform="translate(156,0)" x2="0" y2="-450" stroke="#ddd" stroke-width="1" opacity="1"/><line transform="translate(194,0)" x2="0" y2="-450" stroke="#ddd" stroke-width="1" opacity="1"/><line transform="translate(233,0)" x2="0" y2="-450" stroke="#ddd" stroke-width="1" opacity="1"/><line transform="translate(272,0)" x2="0" y2="-450" stroke="#ddd" stroke-width="1" opacity="1"/><line transform="translate(311,0)" x2="0" y2="-450" stroke="#ddd" stroke-width="1" opacity="1"/><line transform="translate(350,0)" x2="0" y2="-450" stroke="#ddd" stroke-width="1" opacity="1"/><line transform="translate(389,0)" x2="0" y2="-450" stroke="#ddd" stroke-width="1" opacity="1"/><line transform="translate(428,0)" x2="0" y2="-450" stroke="#ddd" stroke-width="1" opacity="1"/><line transform="translate(467,0)" x2="0" y2="-450" stroke="#ddd" stroke-width="1" opacity="1"/><line transform="translate(506,0)" x2="0" y2="-450" stroke="#ddd" stroke-width="1" opacity="1"/><line transform="translate(544,0)" x2="0" y2="-450" stroke="#ddd" stroke-width="1" opacity="1"/><line transform="translate(583,0)" x2="0" y2="-450" stroke="#ddd" stroke-width="1" opacity="1"/><line transform="translate(622,0)" x2="0" y2="-450" stroke="#ddd" stroke-width="1" opacity="1"/><line transform="translate(661,0)" x2="0" y2="-450" stroke="#ddd" stroke-width="1" opacity="1"/><line transform="translate(700,0)" x2="0" y2="-450" stroke="#ddd" stroke-width="1" opacity="1"/></g></g><path class="foreground" aria-hidden="true" d="" pointer-events="none" display="none"/></g></g><g class="mark-group role-axis" role="graphics-symbol" aria-roledescription="axis" aria-label="X-axis titled 'Captured CO₂ (Mt)' for a linear scale with values from 0 to 180"><g transform="translate(0.5,450.5)"><path class="background" aria-hidden="true" d="M0,0h0v0h0Z" pointer-events="none"/><g><g class="mark-rule role-axis-tick" pointer-events="none"><line transform="translate(0,0)" x2="0" y2="5" stroke="#000000" stroke-width="1" opacity="1"/><line transform="translate(39,0)" x2="0" y2="5" stroke="#000000" stroke-width="1" opacity="1"/><line transform="translate(78,0)" x2="0" y2="5" stroke="#000000" stroke-width="1" opacity="1"/><line transform="translate(117,0)" x2="0" y2="5" stroke="#000000" stroke-width="1" opacity="1"/><line transform="translate(156,0)" x2="0" y2="5" stroke="#000000" stroke-width="1" opacity="1"/><line transform="translate(194,0)" x2="0" y2="5" stroke="#000000" stroke-width="1" opacity="1"/><line transform="translate(233,0)" x2="0" y2="5" stroke="#000000" stroke-width="1" opacity="1"/><line transform="translate(272,0)" x2="0" y2="5" stroke="#000000" stroke-width="1" opacity="1"/><line transform="translate(311,0)" x2="0" y2="5" stroke="#000000" stroke-width="1" opacity="1"/><line transform="translate(350,0)" x2="0" y2="5" stroke="#000000" stroke-width="1" opacity="1"/><line transform="translate(389,0)" x2="0" y2="5" stroke="#000000" stroke-width="1" opacity="1"/><line transform="translate(428,0)" x2="0" y2="5" stroke="#000000" stroke-width="1" opacity="1"/><line transform="translate(467,0)" x2="0" y2="5" stroke="#000000" stroke-width="1" opacity="1"/><line transform="translate(506,0)" x2="0" y2="5" stroke="#000000" stroke-width="1" opacity="1"/><line transform="translate(544,0)" x2="0" y2="5" stroke="#000000" stroke-width="1" opacity="1"/><line transform="translate(583,0)" x2="0" y2="5" stroke="#000000" stroke-width="1" opacity="1"/><line transform="translate(622,0)" x2="0" y2="5" stroke="#000000" stroke-width="1" opacity="1"/><line transform="translate(661,0)" x2="0" y2="5" stroke="#000000" stroke-width="1" opacity="1"/><line transform="translate(700,0)" x2="0" y2="5" stroke="#000000" stroke-width="1" opacity="1"/></g><g class="mark-text role-axis-label" pointer-events="none"><text text-anchor="start" transform="translate(0,21)" font-family="sans-serif" font-size="14px" fill="#000000" opacity="1">0</text><text text-anchor="middle" transform="translate(38.888888888888886,21)" font-family="sans-serif" font-size="14px" fill="#000000" opacity="1">10</text><text text-anchor="middle" transform="translate(77.77777777777777,21)" font-family="sans-serif" font-size="14px" fill="#000000" opacity="1">20</text><text text-anchor="middle" transform="translate(116.66666666666666,21)" font-family="sans-serif" font-size="14px" fill="#000000" opacity="1">30</text><text text-anchor="middle" transform="translate(155.55555555555554,21)" font-family="sans-serif" font-size="14px" fill="#000000" opacity="1">40</text><text text-anchor="middle" transform="translate(194.44444444444446,21)" font-family="sans-serif" font-size="14px" fill="#000000" opacity="1">50</text><text text-anchor="middle" transform="translate(233.33333333333331,21)" font-family="sans-serif" font-size="14px" fill="#000000" opacity="1">60</text><text text-anchor="middle" transform="translate(272.22222222222223,21)" font-family="sans-serif" font-size="14px" fill="#000000" opacity="1">70</text><text text-anchor="middle" transform="translate(311.1111111111111,21)" font-family="sans-serif" font-size="14px" fill="#000000" opacity="1">80</text><text text-anchor="middle" transform="translate(350,21)" font-family="sans-serif" font-size="14px" fill="#000000" opacity="1">90</text><text text-anchor="middle" transform="translate(388.8888888888889,21)" font-family="sans-serif" font-size="14px" fill="#000000" opacity="1">100</text><text text-anchor="middle" transform="translate(427.7777777777778,21)" font-family="sans-serif" font-size="14px" fill="#000000" opacity="1">110</text><text text-anchor="middle" transform="translate(466.66666666666663,21)" font-family="sans-serif" font-size="14px" fill="#000000" opacity="1">120</text><text text-anchor="middle" transform="translate(505.55555555555554,21)" font-family="sans-serif" font-size="14px" fill="#000000" opacity="1">130</text><text text-anchor="middle" transform="translate(544.4444444444445,21)" font-family="sans-serif" font-size="14px" fill="#000000" opacity="1">140</text><text text-anchor="middle" transform="translate(583.3333333333334,21)" font-family="sans-serif" font-size="14px" fill="#000000" opacity="1">150</text><text text-anchor="middle" transform="translate(622.2222222222222,21)" font-family="sans-serif" font-size="14px" fill="#000000" opacity="1">160</text><text text-anchor="middle" transform="translate(661.1111111111111,21)" font-family="sans-serif" font-size="14px" fill="#000000" opacity="1">170</text><text text-anchor="end" transform="translate(700,21)" font-family="sans-serif" font-size="14px" fill="#000000" opacity="1">180</text></g><g class="mark-rule role-axis-domain" pointer-events="none"><line transform="translate(0,0)" x2="700" y2="0" stroke="#000000" stroke-width="1" opacity="1"/></g><g class="mark-text role-axis-title" pointer-events="none"><text text-anchor="middle" transform="translate(350,47)" font-family="sans-serif" font-size="16px" font-weight="bold" fill="#000000" opacity="1">Captured CO₂ (Mt)</text></g></g><path class="foreground" aria-hidden="true" d="" pointer-events="none" display="none"/></g></g><g class="mark-group role-axis" role="graphics-symbol" aria-roledescription="axis" aria-label="Y-axis for a discrete scale with 9 values: Refinery (1 Mbarrels/d), NGCC power plant (1000 MW), Coal-fired power plant (500 MW), NGCC power plant (500 MW), Cement plant (1.5 Mt/y), ending with Cement plant (1 Mt/y)"><g transform="translate(0.5,0.5)"><path class="background" aria-hidden="true" d="M0,0h0v0h0Z" pointer-events="none"/><g><g class="mark-rule role-axis-tick" pointer-events="none"><line transform="translate(0,25)" x2="-5" y2="0" stroke="#000000" stroke-width="1" opacity="1"/><line transform="translate(0,75)" x2="-5" y2="0" stroke="#000000" stroke-width="1" opacity="1"/><line transform="translate(0,125)" x2="-5" y2="0" stroke="#000000" stroke-width="1" opacity="1"/><line transform="translate(0,175)" x2="-5" y2="0" stroke="#000000" stroke-width="1" opacity="1"/><line transform="translate(0,225)" x2="-5" y2="0" stroke="#000000" stroke-width="1" opacity="1"/><line transform="translate(0,275)" x2="-5" y2="0" stroke="#000000" stroke-width="1" opacity="1"/><line transform="translate(0,325)" x2="-5" y2="0" stroke="#000000" stroke-width="1" opacity="1"/><line transform="translate(0,375)" x2="-5" y2="0" stroke="#000000" stroke-width="1" opacity="1"/><line transform="translate(0,425)" x2="-5" y2="0" stroke="#000000" stroke-width="1" opacity="1"/></g><g class="mark-text role-axis-label" pointer-events="none"><text text-anchor="end" transform="translate(-10,28.5)" font-family="sans-serif" font-size="14px" fill="#000000" opacity="1">Refinery (1 Mbarrels/d)</text><text text-anchor="end" transform="translate(-10,78.5)" font-family="sans-serif" font-size="14px" fill="#000000" opacity="1">NGCC power plant (1000 MW)</text><text text-anchor="end" transform="translate(-10,128.5)" font-family="sans-serif" font-size="14px" fill="#000000" opacity="1">Coal-fired power plant (500 MW)</text><text text-anchor="end" transform="translate(-10,178.5)" font-family="sans-serif" font-size="14px" fill="#000000" opacity="1">NGCC power plant (500 MW)</text><text text-anchor="end" transform="translate(-10,228.5)" font-family="sans-serif" font-size="14px" fill="#000000" opacity="1">Cement plant (1.5 Mt/y)</text><text text-anchor="end" transform="translate(-10,278.5)" font-family="sans-serif" font-size="14px" fill="#000000" opacity="1">NGCC power plant (400 MW)</text><text text-anchor="end" transform="translate(-10,328.5)" font-family="sans-serif" font-size="14px" fill="#000000" opacity="1">Ammonia plant (500 kt/y)</text><text text-anchor="end" transform="translate(-10,378.5)" font-family="sans-serif" font-size="14px" fill="#000000" opacity="1">Steel mill (300 kt/y)</text><text text-anchor="end" transform="translate(-10,428.5)" font-family="sans-serif" font-size="14px" fill="#000000" opacity="1">Cement plant (1 Mt/y)</text></g><g class="mark-rule role-axis-domain" pointer-events="none"><line transform="translate(0,0)" x2="0" y2="450" stroke="#000000" stroke-width="1" opacity="1"/></g></g><path class="foreground" aria-hidden="true" d="" pointer-events="none" display="none"/></g></g><g class="mark-group role-scope" role="graphics-object" aria-roledescription="group mark container"><g transform="translate(0,102.5)"><path class="background" aria-hidden="true" d="M0,0L196.49999999999997,0C198.15574507348197,0,199.49999999999997,1.344254926518,199.49999999999997,3L199.49999999999997,42C199.49999999999997,43.655745073482,198.15574507348197,45,196.49999999999997,45L0,45C0,45,0,45,0,45L0,0C0,0,0,0,0,0Z"/><g clip-path="url(#clip127)"><g class="mark-group role-scope" role="graphics-object" aria-roledescription="group mark container"><g transform="translate(0,0)"><path class="background" aria-hidden="true" d="M0,0h0v45h0Z"/><g><g class="mark-rect role-mark layer_0_marks" role="graphics-object" aria-roledescription="rect mark container"><path aria-label="Captured CO₂ (Mt): 51.3; plant_name: Coal-fired power plant (500 MW); Plant: Coal-fired power plant (500 MW); CO2 Captured (Mt): 51.300; Share (%): 15.3" role="graphics-symbol" aria-roledescription="bar" d="M0,0h199.49999999999997v45h-199.49999999999997Z" fill="#54a24b" opacity="1"/></g></g><path class="foreground" aria-hidden="true" d="" display="none"/></g></g></g><path class="foreground" aria-hidden="true" d="" display="none"/></g><g transform="translate(0,152.5)"><path class="background" aria-hidden="true" d="M0,0L97.1,0C98.75574507348199,0,100.1,1.344254926518,100.1,3L100.1,42C100.1,43.655745073482,98.75574507348199,45,97.1,45L0,45C0,45,0,45,0,45L0,0C0,0,0,0,0,0Z"/><g clip-path="url(#clip128)"><g class="mark-group role-scope" role="graphics-object" aria-roledescription="group mark container"><g transform="translate(0,0)"><path class="background" aria-hidden="true" d="M0,0h0v45h0Z"/><g><g class="mark-rect role-mark layer_0_marks" role="graphics-object" aria-roledescription="rect mark container"><path aria-label="Captured CO₂ (Mt): 25.74; plant_name: NGCC power plant (500 MW); Plant: NGCC power plant (500 MW); CO2 Captured (Mt): 25.740; Share (%): 7.7" role="graphics-symbol" aria-roledescription="bar" d="M0,0h100.1v45h-100.1Z" fill="#ff9da6" opacity="1"/></g></g><path class="foreground" aria-hidden="true" d="" display="none"/></g></g></g><path class="foreground" aria-hidden="true" d="" display="none"/></g><g transform="translate(0,52.5)"><path class="background" aria-hidden="true" d="M0,0L246.375,0C248.030745073482,0,249.375,1.344254926518,249.375,3L249.375,42C249.375,43.655745073482,248.030745073482,45,246.375,45L0,45C0,45,0,45,0,45L0,0C0,0,0,0,0,0Z"/><g clip-path="url(#clip129)"><g class="mark-group role-scope" role="graphics-object" aria-roledescription="group mark container"><g transform="translate(0,0)"><path class="background" aria-hidden="true" d="M0,0h0v45h0Z"/><g><g class="mark-rect role-mark layer_0_marks" role="graphics-object" aria-roledescription="rect mark container"><path aria-label="Captured CO₂ (Mt): 64.125; plant_name: NGCC power plant (1000 MW); Plant: NGCC power plant (1000 MW); CO2 Captured (Mt): 64.125; Share (%): 19.2" role="graphics-symbol" aria-roledescription="bar" d="M0,0h249.375v45h-249.375Z" fill="#eeca3b" opacity="1"/></g></g><path class="foreground" aria-hidden="true" d="" display="none"/></g></g></g><path class="foreground" aria-hidden="true" d="" display="none"/></g><g transform="translate(0,252.5)"><path class="background" aria-hidden="true" d="M0,0L36.9,0C38.555745073482,0,39.9,1.344254926518,39.9,3L39.9,42C39.9,43.655745073482,38.555745073482,45,36.9,45L0,45C0,45,0,45,0,45L0,0C0,0,0,0,0,0Z"/><g clip-path="url(#clip130)"><g class="mark-group role-scope" role="graphics-object" aria-roledescription="group mark container"><g transform="translate(0,0)"><path class="background" aria-hidden="true" d="M0,0h0v45h0Z"/><g><g class="mark-rect role-mark layer_0_marks" role="graphics-object" aria-roledescription="rect mark container"><path aria-label="Captured CO₂ (Mt): 10.26; plant_name: NGCC power plant (400 MW); Plant: NGCC power plant (400 MW); CO2 Captured (Mt): 10.260; Share (%): 3.1" role="graphics-symbol" aria-roledescription="bar" d="M0,0h39.9v45h-39.9Z" fill="#b279a2" opacity="1"/></g></g><path class="foreground" aria-hidden="true" d="" display="none"/></g></g></g><path class="foreground" aria-hidden="true" d="" display="none"/></g><g transform="translate(0,352.5)"><path class="background" aria-hidden="true" d="M0,0L32.00000000000001,0C33.65574507348201,0,35.00000000000001,1.344254926518,35.00000000000001,3L35.00000000000001,42C35.00000000000001,43.655745073482,33.65574507348201,45,32.00000000000001,45L0,45C0,45,0,45,0,45L0,0C0,0,0,0,0,0Z"/><g clip-path="url(#clip131)"><g class="mark-group role-scope" role="graphics-object" aria-roledescription="group mark container"><g transform="translate(0,0)"><path class="background" aria-hidden="true" d="M0,0h0v45h0Z"/><g><g class="mark-rect role-mark layer_0_marks" role="graphics-object" aria-roledescription="rect mark container"><path aria-label="Captured CO₂ (Mt): 9; plant_name: Steel mill (300 kt/y); Plant: Steel mill (300 kt/y); CO2 Captured (Mt): 9.000; Share (%): 2.7" role="graphics-symbol" aria-roledescription="bar" d="M0,0h35.00000000000001v45h-35.00000000000001Z" fill="#bab0ac" opacity="1"/></g></g><path class="foreground" aria-hidden="true" d="" display="none"/></g></g></g><path class="foreground" aria-hidden="true" d="" display="none"/></g><g transform="translate(0,2.5)"><path class="background" aria-hidden="true" d="M0,0L529,0C530.655745073482,0,532,1.344254926518,532,3L532,42C532,43.655745073482,530.655745073482,45,529,45L0,45C0,45,0,45,0,45L0,0C0,0,0,0,0,0Z"/><g clip-path="url(#clip132)"><g class="mark-group role-scope" role="graphics-object" aria-roledescription="group mark container"><g transform="translate(0,0)"><path class="background" aria-hidden="true" d="M0,0h0v45h0Z"/><g><g class="mark-rect role-mark layer_0_marks" role="graphics-object" aria-roledescription="rect mark container"><path aria-label="Captured CO₂ (Mt): 136.8; plant_name: Refinery (1 Mbarrels/d); Plant: Refinery (1 Mbarrels/d); CO2 Captured (Mt): 136.800; Share (%): 40.9" role="graphics-symbol" aria-roledescription="bar" d="M0,0h532v45h-532Z" fill="#9d755d" opacity="1"/></g></g><path class="foreground" aria-hidden="true" d="" display="none"/></g></g></g><path class="foreground" aria-hidden="true" d="" display="none"/></g><g transform="translate(0,402.5)"><path class="background" aria-hidden="true" d="M0,0L30.25,0C31.905745073482,0,33.25,1.344254926518,33.25,3L33.25,42C33.25,43.655745073482,31.905745073482,45,30.25,45L0,45C0,45,0,45,0,45L0,0C0,0,0,0,0,0Z"/><g clip-path="url(#clip133)"><g class="mark-group role-scope" role="graphics-object" aria-roledescription="group mark container"><g transform="translate(0,0)"><path class="background" aria-hidden="true" d="M0,0h0v45h0Z"/><g><g class="mark-rect role-mark layer_0_marks" role="graphics-object" aria-roledescription="rect mark container"><path aria-label="Captured CO₂ (Mt): 8.55; plant_name: Cement plant (1 Mt/y); Plant: Cement plant (1 Mt/y); CO2 Captured (Mt): 8.550; Share (%): 2.6" role="graphics-symbol" aria-roledescription="bar" d="M0,0h33.25v45h-33.25Z" fill="#f58518" opacity="1"/></g></g><path class="foreground" aria-hidden="true" d="" display="none"/></g></g></g><path class="foreground" aria-hidden="true" d="" display="none"/></g><g transform="translate(0,202.5)"><path class="background" aria-hidden="true" d="M0,0L72.075,0C73.730745073482,0,75.075,1.344254926518,75.075,3L75.075,42C75.075,43.655745073482,73.730745073482,45,72.075,45L0,45C0,45,0,45,0,45L0,0C0,0,0,0,0,0Z"/><g clip-path="url(#clip134)"><g class="mark-group role-scope" role="graphics-object" aria-roledescription="group mark container"><g transform="translate(0,0)"><path class="background" aria-hidden="true" d="M0,0h0v45h0Z"/><g><g class="mark-rect role-mark layer_0_marks" role="graphics-object" aria-roledescription="rect mark container"><path aria-label="Captured CO₂ (Mt): 19.305; plant_name: Cement plant (1.5 Mt/y); Plant: Cement plant (1.5 Mt/y); CO2 Captured (Mt): 19.305; Share (%): 5.8" role="graphics-symbol" aria-roledescription="bar" d="M0,0h75.075v45h-75.075Z" fill="#e45756" opacity="1"/></g></g><path class="foreground" aria-hidden="true" d="" display="none"/></g></g></g><path class="foreground" aria-hidden="true" d="" display="none"/></g><g transform="translate(0,302.5)"><path class="background" aria-hidden="true" d="M0,0L33.75,0C35.405745073482,0,36.75,1.344254926518,36.75,3L36.75,42C36.75,43.655745073482,35.405745073482,45,33.75,45L0,45C0,45,0,45,0,45L0,0C0,0,0,0,0,0Z"/><g clip-path="url(#clip135)"><g class="mark-group role-scope" role="graphics-object" aria-roledescription="group mark container"><g transform="translate(0,0)"><path class="background" aria-hidden="true" d="M0,0h0v45h0Z"/><g><g class="mark-rect role-mark layer_0_marks" role="graphics-object" aria-roledescription="rect mark container"><path aria-label="Captured CO₂ (Mt): 9.45; plant_name: Ammonia plant (500 kt/y); Plant: Ammonia plant (500 kt/y); CO2 Captured (Mt): 9.450; Share (%): 2.8" role="graphics-symbol" aria-roledescription="bar" d="M0,0h36.75v45h-36.75Z" fill="#4c78a8" opacity="1"/></g></g><path class="foreground" aria-hidden="true" d="" display="none"/></g></g></g><path class="foreground" aria-hidden="true" d="" display="none"/></g></g><g class="mark-text role-mark layer_1_marks" role="graphics-object" aria-roledescription="text mark container"><text aria-label="cumulative_captured_co2_mt: 51.3; plant_name: Coal-fired power plant (500 MW); co2_label: 51.3 Mt (15.3%)" role="graphics-symbol" aria-roledescription="text mark" text-anchor="start" transform="translate(203.49999999999997,130)" font-family="sans-serif" font-size="17.5px" font-weight="bold" fill="#000000" opacity="1">51.3 Mt (15.3%)</text><text aria-label="cumulative_captured_co2_mt: 25.74; plant_name: NGCC power plant (500 MW); co2_label: 25.7 Mt (7.7%)" role="graphics-symbol" aria-roledescription="text mark" text-anchor="start" transform="translate(104.1,180)" font-family="sans-serif" font-size="17.5px" font-weight="bold" fill="#000000" opacity="1">25.7 Mt (7.7%)</text><text aria-label="cumulative_captured_co2_mt: 64.125; plant_name: NGCC power plant (1000 MW); co2_label: 64.1 Mt (19.2%)" role="graphics-symbol" aria-roledescription="text mark" text-anchor="start" transform="translate(253.375,80)" font-family="sans-serif" font-size="17.5px" font-weight="bold" fill="#000000" opacity="1">64.1 Mt (19.2%)</text><text aria-label="cumulative_captured_co2_mt: 10.26; plant_name: NGCC power plant (400 MW); co2_label: 10.3 Mt (3.1%)" role="graphics-symbol" aria-roledescription="text mark" text-anchor="start" transform="translate(43.9,280)" font-family="sans-serif" font-size="17.5px" font-weight="bold" fill="#000000" opacity="1">10.3 Mt (3.1%)</text><text aria-label="cumulative_captured_co2_mt: 9; plant_name: Steel mill (300 kt/y); co2_label: 9.0 Mt (2.7%)" role="graphics-symbol" aria-roledescription="text mark" text-anchor="start" transform="translate(39.00000000000001,380)" font-family="sans-serif" font-size="17.5px" font-weight="bold" fill="#000000" opacity="1">9.0 Mt (2.7%)</text><text aria-label="cumulative_captured_co2_mt: 136.8; plant_name: Refinery (1 Mbarrels/d); co2_label: 136.8 Mt (40.9%)" role="graphics-symbol" aria-roledescription="text mark" text-anchor="start" transform="translate(536,30)" font-family="sans-serif" font-size="17.5px" font-weight="bold" fill="#000000" opacity="1">136.8 Mt (40.9%)</text><text aria-label="cumulative_captured_co2_mt: 8.55; plant_name: Cement plant (1 Mt/y); co2_label: 8.6 Mt (2.6%)" role="graphics-symbol" aria-roledescription="text mark" text-anchor="start" transform="translate(37.25,430)" font-family="sans-serif" font-size="17.5px" font-weight="bold" fill="#000000" opacity="1">8.6 Mt (2.6%)</text><text aria-label="cumulative_captured_co2_mt: 19.305; plant_name: Cement plant (1.5 Mt/y); co2_label: 19.3 Mt (5.8%)" role="graphics-symbol" aria-roledescription="text mark" text-anchor="start" transform="translate(79.075,230)" font-family="sans-serif" font-size="17.5px" font-weight="bold" fill="#000000" opacity="1">19.3 Mt (5.8%)</text><text aria-label="cumulative_captured_co2_mt: 9.45; plant_name: Ammonia plant (500 kt/y); co2_label: 9.5 Mt (2.8%)" role="graphics-symbol" aria-roledescription="text mark" text-anchor="start" transform="translate(40.75,330)" font-family="sans-serif" font-size="17.5px" font-weight="bold" fill="#000000" opacity="1">9.5 Mt (2.8%)</text></g><g class="mark-group role-title"><g transform="translate(-212.2958984375,-33)"><path class="background" aria-hidden="true" d="M0,0h0v0h0Z" pointer-events="none"/><g><g class="mark-text role-title-text" role="graphics-symbol" aria-roledescription="title" aria-label="Title text 'Total Captured CO₂ Share'" pointer-events="none"><text text-anchor="start" transform="translate(0,14)" font-family="sans-serif" font-size="18px" font-weight="bold" fill="#000000" opacity="1">Total Captured CO₂ Share</text></g></g><path class="foreground" aria-hidden="true" d="" pointer-events="none" display="none"/></g></g></g><path class="foreground" aria-hidden="true" d="" display="none"/></g></g></g><defs><clipPath id="clip127"><path d="M0,0L196.49999999999997,0C198.15574507348197,0,199.49999999999997,1.344254926518,199.49999999999997,3L199.49999999999997,42C199.49999999999997,43.655745073482,198.15574507348197,45,196.49999999999997,45L0,45C0,45,0,45,0,45L0,0C0,0,0,0,0,0Z"/></clipPath><clipPath id="clip128"><path d="M0,0L97.1,0C98.75574507348199,0,100.1,1.344254926518,100.1,3L100.1,42C100.1,43.655745073482,98.75574507348199,45,97.1,45L0,45C0,45,0,45,0,45L0,0C0,0,0,0,0,0Z"/></clipPath><clipPath id="clip129"><path d="M0,0L246.375,0C248.030745073482,0,249.375,1.344254926518,249.375,3L249.375,42C249.375,43.655745073482,248.030745073482,45,246.375,45L0,45C0,45,0,45,0,45L0,0C0,0,0,0,0,0Z"/></clipPath><clipPath id="clip130"><path d="M0,0L36.9,0C38.555745073482,0,39.9,1.344254926518,39.9,3L39.9,42C39.9,43.655745073482,38.555745073482,45,36.9,45L0,45C0,45,0,45,0,45L0,0C0,0,0,0,0,0Z"/></clipPath><clipPath id="clip131"><path d="M0,0L32.00000000000001,0C33.65574507348201,0,35.00000000000001,1.344254926518,35.00000000000001,3L35.00000000000001,42C35.00000000000001,43.655745073482,33.65574507348201,45,32.00000000000001,45L0,45C0,45,0,45,0,45L0,0C0,0,0,0,0,0Z"/></clipPath><clipPath id="clip132"><path d="M0,0L529,0C530.655745073482,0,532,1.344254926518,532,3L532,42C532,43.655745073482,530.655745073482,45,529,45L0,45C0,45,0,45,0,45L0,0C0,0,0,0,0,0Z"/></clipPath><clipPath id="clip133"><path d="M0,0L30.25,0C31.905745073482,0,33.25,1.344254926518,33.25,3L33.25,42C33.25,43.655745073482,31.905745073482,45,30.25,45L0,45C0,45,0,45,0,45L0,0C0,0,0,0,0,0Z"/></clipPath><clipPath id="clip134"><path d="M0,0L72.075,0C73.730745073482,0,75.075,1.344254926518,75.075,3L75.075,42C75.075,43.655745073482,73.730745073482,45,72.075,45L0,45C0,45,0,45,0,45L0,0C0,0,0,0,0,0Z"/></clipPath><clipPath id="clip135"><path d="M0,0L33.75,0C35.405745073482,0,36.75,1.344254926518,36.75,3L36.75,42C36.75,43.655745073482,35.405745073482,45,33.75,45L0,45C0,45,0,45,0,45L0,0C0,0,0,0,0,0Z"/></clipPath></defs></svg>