<svg xmlns="http://www.w3.org/2000/svg" xmlns:xlink="http://www.w3.org/1999/xlink" version="1.1" class="marks" width="1037" height="350" viewBox="0 0 1037 350"><rect width="1037" height="350" fill="#ffffff"/><g fill="none" stroke-miterlimit="10" transform="translate(179,31)"><g class="mark-group role-frame root" role="graphics-object" aria-roledescription="group mark container"><g transform="translate(0,0)"><path class="background" aria-hidden="true" d="M0,0h857v256h-857Z" stroke-opacity="0" stroke-width="0"/><g><g class="mark-group role-axis" aria-hidden="true"><g transform="translate(0.5,256.5)"><path class="background" aria-hidden="true" d="M0,0h0v0h0Z" pointer-events="none"/><g><g class="mark-rule role-axis-grid" pointer-events="none"><line transform="translate(0,0)" x2="0" y2="-256" stroke="#e6eaf1" stroke-width="1" opacity="1"/><line transform="translate(48,0)" x2="0" y2="-256" stroke="#e6eaf1" stroke-width="1" opacity="1"/><line transform="translate(95,0)" x2="0" y2="-256" stroke="#e6eaf1" stroke-width="1" opacity="1"/><line transform="translate(143,0)" x2="0" y2="-256" stroke="#e6eaf1" stroke-width="1" opacity="1"/><line transform="translate(190,0)" x2="0" y2="-256" stroke="#e6eaf1" stroke-width="1" opacity="1"/><line transform="translate(238,0)" x2="0" y2="-256" stroke="#e6eaf1" stroke-width="1" opacity="1"/><line transform="translate(286,0)" x2="0" y2="-256" stroke="#e6eaf1" stroke-width="1" opacity="1"/><line transform="translate(333,0)" x2="0" y2="-256" stroke="#e6eaf1" stroke-width="1" opacity="1"/><line transform="translate(381,0)" x2="0" y2="-256" stroke="#e6eaf1" stroke-width="1" opacity="1"/><line transform="translate(429,0)" x2="0" y2="-256" stroke="#e6eaf1" stroke-width="1" opacity="1"/><line transform="translate(476,0)" x2="0" y2="-256" stroke="#e6eaf1" stroke-width="1" opacity="1"/><line transform="translate(524,0)" x2="0" y2="-256" stroke="#e6eaf1" stroke-width="1" opacity="1"/><line transform="translate(571,0)" x2="0" y2="-256" stroke="#e6eaf1" stroke-width="1" opacity="1"/><line transform="translate(619,0)" x2="0" y2="-256" stroke="#e6eaf1" stroke-width="1" opacity="1"/><line transform="translate(667,0)" x2="0" y2="-256" stroke="#e6eaf1" stroke-width="1" opacity="1"/><line transform="translate(714,0)" x2="0" y2="-256" stroke="#e6eaf1" stroke-width="1" opacity="1"/><line transform="translate(762,0)" x2="0" y2="-256" stroke="#e6eaf1" stroke-width="1" opacity="1"/><line transform="translate(809,0)" x2="0" y2="-256" stroke="#e6eaf1" stroke-width="1" opacity="1"/><line transform="translate(857,0)" x2="0" y2="-256" stroke="#e6eaf1" stroke-width="1" opacity="1"/></g></g><path class="foreground" aria-hidden="true" d="" pointer-events="none" display="none"/></g></g><g class="mark-group role-axis" role="graphics-symbol" aria-roledescription="axis" aria-label="X-axis titled 'Captured CO₂ (Mt)' for a linear scale with values from 0 to 180"><g transform="translate(0.5,256.5)"><path class="background" aria-hidden="true" d="M0,0h0v0h0Z" pointer-events="none"/><g><g class="mark-text role-axis-label" pointer-events="none"><text text-anchor="start" transform="translate(-1,15)" font-family="&quot;Source Sans&quot;, sans-serif" font-size="13px" font-style="normal" font-weight="400" fill="#808495" opacity="1">0</text><text text-anchor="middle" transform="translate(47.61111111111111,15)" font-family="&quot;Source Sans&quot;, sans-serif" font-size="13px" font-style="normal" font-weight="400" fill="#808495" opacity="1">10</text><text text-anchor="middle" transform="translate(95.22222222222221,15)" font-family="&quot;Source Sans&quot;, sans-serif" font-size="13px" font-style="normal" font-weight="400" fill="#808495" opacity="1">20</text><text text-anchor="middle" transform="translate(142.83333333333331,15)" font-family="&quot;Source Sans&quot;, sans-serif" font-size="13px" font-style="normal" font-weight="400" fill="#808495" opacity="1">30</text><text text-anchor="middle" transform="translate(190.44444444444443,15)" font-family="&quot;Source Sans&quot;, sans-serif" font-size="13px" font-style="normal" font-weight="400" fill="#808495" opacity="1">40</text><text text-anchor="middle" transform="translate(238.05555555555557,15)" font-family="&quot;Source Sans&quot;, sans-serif" font-size="13px" font-style="normal" font-weight="400" fill="#808495" opacity="1">50</text><text text-anchor="middle" transform="translate(285.66666666666663,15)" font-family="&quot;Source Sans&quot;, sans-serif" font-size="13px" font-style="normal" font-weight="400" fill="#808495" opacity="1">60</text><text text-anchor="middle" transform="translate(333.27777777777777,15)" font-family="&quot;Source Sans&quot;, sans-serif" font-size="13px" font-style="normal" font-weight="400" fill="#808495" opacity="1">70</text><text text-anchor="middle" transform="translate(380.88888888888886,15)" font-family="&quot;Source Sans&quot;, sans-serif" font-size="13px" font-style="normal" font-weight="400" fill="#808495" opacity="1">80</text><text text-anchor="middle" transform="translate(428.5,15)" font-family="&quot;Source Sans&quot;, sans-serif" font-size="13px" font-style="normal" font-weight="400" fill="#808495" opacity="1">90</text><text text-anchor="middle" transform="translate(476.11111111111114,15)" font-family="&quot;Source Sans&quot;, sans-serif" font-size="13px" font-style="normal" font-weight="400" fill="#808495" opacity="1">100</text><text text-anchor="middle" transform="translate(523.7222222222223,15)" font-family="&quot;Source Sans&quot;, sans-serif" font-size="13px" font-style="normal" font-weight="400" fill="#808495" opacity="1">110</text><text text-anchor="middle" transform="translate(571.3333333333333,15)" font-family="&quot;Source Sans&quot;, sans-serif" font-size="13px" font-style="normal" font-weight="400" fill="#808495" opacity="1">120</text><text text-anchor="middle" transform="translate(618.9444444444445,15)" font-family="&quot;Source Sans&quot;, sans-serif" font-size="13px" font-style="normal" font-weight="400" fill="#808495" opacity="1">130</text><text text-anchor="middle" transform="translate(666.5555555555555,15)" font-family="&quot;Source Sans&quot;, sans-serif" font-size="13px" font-style="normal" font-weight="400" fill="#808495" opacity="1">140</text><text text-anchor="middle" transform="translate(714.1666666666667,15)" font-family="&quot;Source Sans&quot;, sans-serif" font-size="13px" font-style="normal" font-weight="400" fill="#808495" opacity="1">150</text><text text-anchor="middle" transform="translate(761.7777777777777,15)" font-family="&quot;Source Sans&quot;, sans-serif" font-size="13px" font-style="normal" font-weight="400" fill="#808495" opacity="1">160</text><text text-anchor="middle" transform="translate(809.3888888888889,15)" font-family="&quot;Source Sans&quot;, sans-serif" font-size="13px" font-style="normal" font-weight="400" fill="#808495" opacity="1">170</text><text text-anchor="end" transform="translate(858,15)" font-family="&quot;Source Sans&quot;, sans-serif" font-size="13px" font-style="normal" font-weight="400" fill="#808495" opacity="1">180</text></g><g class="mark-text role-axis-title" pointer-events="none"><text text-anchor="middle" transform="translate(428.5,40)" font-family="&quot;Source Sans&quot;, sans-serif" font-size="15px" font-style="normal" font-weight="400" fill="#808495" opacity="1">Captured CO₂ (Mt)</text></g></g><path class="foreground" aria-hidden="true" d="" pointer-events="none" display="none"/></g></g><g class="mark-group role-axis" role="graphics-symbol" aria-roledescription="axis" aria-label="Y-axis for a discrete scale with 9 values: Refinery (1 Mbarrels/d), NGCC power plant (1000 MW), Coal-fired power plant (500 MW), NGCC power plant (500 MW), Cement plant (1.5 Mt/y), ending with Cement plant (1 Mt/y)"><g transform="translate(0.5,0.5)"><path class="background" aria-hidden="true" d="M0,0h0v0h0Z" pointer-events="none"/><g><g class="mark-text role-axis-label" pointer-events="none"><text text-anchor="end" transform="translate(-5,17.722222222222214)" font-family="&quot;Source Sans&quot;, sans-serif" font-size="13px" font-style="normal" font-weight="400" fill="#808495" opacity="1">Refinery (1 Mbarrels/d)</text><text text-anchor="end" transform="translate(-5,46.16666666666666)" font-family="&quot;Source Sans&quot;, sans-serif" font-size="13px" font-style="normal" font-weight="400" fill="#808495" opacity="1">NGCC power plant (1000 MW)</text><text text-anchor="end" transform="translate(-5,74.6111111111111)" font-family="&quot;Source Sans&quot;, sans-serif" font-size="13px" font-style="normal" font-weight="400" fill="#808495" opacity="1">Coal-fired power plant (500 MW)</text><text text-anchor="end" transform="translate(-5,103.05555555555554)" font-family="&quot;Source Sans&quot;, sans-serif" font-size="13px" font-style="normal" font-weight="400" fill="#808495" opacity="1">NGCC power plant (500 MW)</text><text text-anchor="end" transform="translate(-5,131.5)" font-family="&quot;Source Sans&quot;, sans-serif" font-size="13px" font-style="normal" font-weight="400" fill="#808495" opacity="1">Cement plant (1.5 Mt/y)</text><text text-anchor="end" transform="translate(-5,159.94444444444446)" font-family="&quot;Source Sans&quot;, sans-serif" font-size="13px" font-style="normal" font-weight="400" fill="#808495" opacity="1">NGCC power plant (400 MW)</text><text text-anchor="end" transform="translate(-5,188.38888888888889)" font-family="&quot;Source Sans&quot;, sans-serif" font-size="13px" font-style="normal" font-weight="400" fill="#808495" opacity="1">Ammonia plant (500 kt/y)</text><text text-anchor="end" transform="translate(-5,216.83333333333331)" font-family="&quot;Source Sans&quot;, sans-serif" font-size="13px" font-style="normal" font-weight="400" fill="#808495" opacity="1">Steel mill (300 kt/y)</text><text text-anchor="end" transform="translate(-5,245.27777777777777)" font-family="&quot;Source Sans&quot;, sans-serif" font-size="13px" font-style="normal" font-weight="400" fill="#808495" opacity="1">Cement plant (1 Mt/y)</text></g></g><path class="foreground" aria-hidden="true" d="" pointer-events="none" display="none"/></g></g><g class="mark-group role-scope" role="graphics-object" aria-roledescription="group mark container"><g transform="translate(0,60.231111111111105)"><path class="background" aria-hidden="true" d="M0,0L241.24499999999998,0C242.90074507348197,0,244.24499999999998,1.344254926518,244.24499999999998,3L244.24499999999998,18.759999999999998C244.24499999999998,20.415745073481997,242.90074507348197,21.759999999999998,241.24499999999998,21.759999999999998L0,21.759999999999998C0,21.759999999999998,0,21.759999999999998,0,21.759999999999998L0,0C0,0,0,0,0,0Z"/><g clip-path="url(#clip82)"><g class="mark-group role-scope" role="graphics-object" aria-roledescription="group mark container"><g transform="translate(0,0)"><path class="background" aria-hidden="true" d="M0,0h0v21.759999999999998h0Z"/><g><g class="mark-rect role-mark view_660477a6310a01f8_0_marks" role="graphics-object" aria-roledescription="rect mark container"><path aria-label="Captured CO₂ (Mt): 51.3; plant_name: Coal-fired power plant (500 MW); Plant: Coal-fired power plant (500 MW); CO2 Captured (Mt): 51.300; Share (%): 15.3" role="graphics-symbol" aria-roledescription="bar" d="M0,0h244.24499999999998v21.759999999999998h-244.24499999999998Z" fill="#ffabab" opacity="1"/></g></g><path class="foreground" aria-hidden="true" d="" display="none"/></g></g></g><path class="foreground" aria-hidden="true" d="" display="none"/></g><g transform="translate(0,88.67555555555555)"><path class="background" aria-hidden="true" d="M0,0L119.55099999999999,0C121.20674507348198,0,122.55099999999999,1.344254926518,122.55099999999999,3L122.55099999999999,18.759999999999998C122.55099999999999,20.415745073481997,121.20674507348198,21.759999999999998,119.55099999999999,21.759999999999998L0,21.759999999999998C0,21.759999999999998,0,21.759999999999998,0,21.759999999999998L0,0C0,0,0,0,0,0Z"/><g clip-path="url(#clip83)"><g class="mark-group role-scope" role="graphics-object" aria-roledescription="group mark container"><g transform="translate(0,0)"><path class="background" aria-hidden="true" d="M0,0h0v21.759999999999998h0Z"/><g><g class="mark-rect role-mark view_660477a6310a01f8_0_marks" role="graphics-object" aria-roledescription="rect mark container"><path aria-label="Captured CO₂ (Mt): 25.74; plant_name: NGCC power plant (500 MW); Plant: NGCC power plant (500 MW); CO2 Captured (Mt): 25.740; Share (%): 7.7" role="graphics-symbol" aria-roledescription="bar" d="M0,0h122.55099999999999v21.759999999999998h-122.55099999999999Z" fill="#ff8700" opacity="1"/></g></g><path class="foreground" aria-hidden="true" d="" display="none"/></g></g></g><path class="foreground" aria-hidden="true" d="" display="none"/></g><g transform="translate(0,31.78666666666666)"><path class="background" aria-hidden="true" d="M0,0L302.30625000000003,0C303.96199507348206,0,305.30625000000003,1.344254926518,305.30625000000003,3L305.30625000000003,18.759999999999998C305.30625000000003,20.415745073481997,303.96199507348206,21.759999999999998,302.30625000000003,21.759999999999998L0,21.759999999999998C0,21.759999999999998,0,21.759999999999998,0,21.759999999999998L0,0C0,0,0,0,0,0Z"/><g clip-path="url(#clip84)"><g class="mark-group role-scope" role="graphics-object" aria-roledescription="group mark container"><g transform="translate(0,0)"><path class="background" aria-hidden="true" d="M0,0h0v21.759999999999998h0Z"/><g><g class="mark-rect role-mark view_660477a6310a01f8_0_marks" role="graphics-object" aria-roledescription="rect mark container"><path aria-label="Captured CO₂ (Mt): 64.125; plant_name: NGCC power plant (1000 MW); Plant: NGCC power plant (1000 MW); CO2 Captured (Mt): 64.125; Share (%): 19.2" role="graphics-symbol" aria-roledescription="bar" d="M0,0h305.30625000000003v21.759999999999998h-305.30625000000003Z" fill="#29b09d" opacity="1"/></g></g><path class="foreground" aria-hidden="true" d="" display="none"/></g></g></g><path class="foreground" aria-hidden="true" d="" display="none"/></g><g transform="translate(0,145.56444444444443)"><path class="background" aria-hidden="true" d="M0,0L45.849000000000004,0C47.504745073482006,0,48.849000000000004,1.344254926518,48.849000000000004,3L48.849000000000004,18.759999999999998C48.849000000000004,20.415745073481997,47.504745073482006,21.759999999999998,45.849000000000004,21.759999999999998L0,21.759999999999998C0,21.759999999999998,0,21.759999999999998,0,21.759999999999998L0,0C0,0,0,0,0,0Z"/><g clip-path="url(#clip85)"><g class="mark-group role-scope" role="graphics-object" aria-roledescription="group mark container"><g transform="translate(0,0)"><path class="background" aria-hidden="true" d="M0,0h0v21.759999999999998h0Z"/><g><g class="mark-rect role-mark view_660477a6310a01f8_0_marks" role="graphics-object" aria-roledescription="rect mark container"><path aria-label="Captured CO₂ (Mt): 10.26; plant_name: NGCC power plant (400 MW); Plant: NGCC power plant (400 MW); CO2 Captured (Mt): 10.260; Share (%): 3.1" role="graphics-symbol" aria-roledescription="bar" d="M0,0h48.849000000000004v21.759999999999998h-48.849000000000004Z" fill="#7defa1" opacity="1"/></g></g><path class="foreground" aria-hidden="true" d="" display="none"/></g></g></g><path class="foreground" aria-hidden="true" d="" display="none"/></g><g transform="translate(0,202.4533333333333)"><path class="background" aria-hidden="true" d="M0,0L39.85000000000001,0C41.50574507348201,0,42.85000000000001,1.344254926518,42.85000000000001,3L42.85000000000001,18.759999999999998C42.85000000000001,20.415745073481997,41.50574507348201,21.759999999999998,39.85000000000001,21.759999999999998L0,21.759999999999998C0,21.759999999999998,0,21.759999999999998,0,21.759999999999998L0,0C0,0,0,0,0,0Z"/><g clip-path="url(#clip86)"><g class="mark-group role-scope" role="graphics-object" aria-roledescription="group mark container"><g transform="translate(0,0)"><path class="background" aria-hidden="true" d="M0,0h0v21.759999999999998h0Z"/><g><g class="mark-rect role-mark view_660477a6310a01f8_0_marks" role="graphics-object" aria-roledescription="rect mark container"><path aria-label="Captured CO₂ (Mt): 9; plant_name: Steel mill (300 kt/y); Plant: Steel mill (300 kt/y); CO2 Captured (Mt): 9.000; Share (%): 2.7" role="graphics-symbol" aria-roledescription="bar" d="M0,0h42.85000000000001v21.759999999999998h-42.85000000000001Z" fill="#6d3fc0" opacity="1"/></g></g><path class="foreground" aria-hidden="true" d="" display="none"/></g></g></g><path class="foreground" aria-hidden="true" d="" display="none"/></g><g transform="translate(0,3.342222222222217)"><path class="background" aria-hidden="true" d="M0,0L648.32,0C649.975745073482,0,651.32,1.344254926518,651.32,3L651.32,18.759999999999998C651.32,20.415745073481997,649.975745073482,21.759999999999998,648.32,21.759999999999998L0,21.759999999999998C0,21.759999999999998,0,21.759999999999998,0,21.759999999999998L0,0C0,0,0,0,0,0Z"/><g clip-path="url(#clip87)"><g class="mark-group role-scope" role="graphics-object" aria-roledescription="group mark container"><g transform="translate(0,0)"><path class="background" aria-hidden="true" d="M0,0h0v21.759999999999998h0Z"/><g><g class="mark-rect role-mark view_660477a6310a01f8_0_marks" role="graphics-object" aria-roledescription="rect mark container"><path aria-label="Captured CO₂ (Mt): 136.8; plant_name: Refinery (1 Mbarrels/d); Plant: Refinery (1 Mbarrels/d); CO2 Captured (Mt): 136.800; Share (%): 40.9" role="graphics-symbol" aria-roledescription="bar" d="M0,0h651.32v21.759999999999998h-651.32Z" fill="#ffd16a" opacity="1"/></g></g><path class="foreground" aria-hidden="true" d="" display="none"/></g></g></g><path class="foreground" aria-hidden="true" d="" display="none"/></g><g transform="translate(0,230.89777777777775)"><path class="background" aria-hidden="true" d="M0,0L37.7075,0C39.363245073482005,0,40.7075,1.344254926518,40.7075,3L40.7075,18.759999999999998C40.7075,20.415745073481997,39.363245073482005,21.759999999999998,37.7075,21.759999999999998L0,21.759999999999998C0,21.759999999999998,0,21.759999999999998,0,21.759999999999998L0,0C0,0,0,0,0,0Z"/><g clip-path="url(#clip88)"><g class="mark-group role-scope" role="graphics-object" aria-roledescription="group mark container"><g transform="translate(0,0)"><path class="background" aria-hidden="true" d="M0,0h0v21.759999999999998h0Z"/><g><g class="mark-rect role-mark view_660477a6310a01f8_0_marks" role="graphics-object" aria-roledescription="rect mark container"><path aria-label="Captured CO₂ (Mt): 8.55; plant_name: Cement plant (1 Mt/y); Plant: Cement plant (1 Mt/y); CO2 Captured (Mt): 8.550; Share (%): 2.6" role="graphics-symbol" aria-roledescription="bar" d="M0,0h40.7075v21.759999999999998h-40.7075Z" fill="#83c9ff" opacity="1"/></g></g><path class="foreground" aria-hidden="true" d="" display="none"/></g></g></g><path class="foreground" aria-hidden="true" d="" display="none"/></g><g transform="translate(0,117.11999999999999)"><path class="background" aria-hidden="true" d="M0,0L88.91325,0C90.568995073482,0,91.91325,1.344254926518,91.91325,3L91.91325,18.759999999999998C91.91325,20.415745073481997,90.568995073482,21.759999999999998,88.91325,21.759999999999998L0,21.759999999999998C0,21.759999999999998,0,21.759999999999998,0,21.759999999999998L0,0C0,0,0,0,0,0Z"/><g clip-path="url(#clip89)"><g class="mark-group role-scope" role="graphics-object" aria-roledescription="group mark container"><g transform="translate(0,0)"><path class="background" aria-hidden="true" d="M0,0h0v21.759999999999998h0Z"/><g><g class="mark-rect role-mark view_660477a6310a01f8_0_marks" role="graphics-object" aria-roledescription="rect mark container"><path aria-label="Captured CO₂ (Mt): 19.305; plant_name: Cement plant (1.5 Mt/y); Plant: Cement plant (1.5 Mt/y); CO2 Captured (Mt): 19.305; Share (%): 5.8" role="graphics-symbol" aria-roledescription="bar" d="M0,0h91.91325v21.759999999999998h-91.91325Z" fill="#ff2b2b" opacity="1"/></g></g><path class="foreground" aria-hidden="true" d="" display="none"/></g></g></g><path class="foreground" aria-hidden="true" d="" display="none"/></g><g transform="translate(0,174.00888888888886)"><path class="background" aria-hidden="true" d="M0,0L41.99250000000001,0C43.64824507348201,0,44.99250000000001,1.344254926518,44.99250000000001,3L44.99250000000001,18.759999999999998C44.99250000000001,20.415745073481997,43.64824507348201,21.759999999999998,41.99250000000001,21.759999999999998L0,21.759999999999998C0,21.759999999999998,0,21.759999999999998,0,21.759999999999998L0,0C0,0,0,0,0,0Z"/><g clip-path="url(#clip90)"><g class="mark-group role-scope" role="graphics-object" aria-roledescription="group mark container"><g transform="translate(0,0)"><path class="background" aria-hidden="true" d="M0,0h0v21.759999999999998h0Z"/><g><g class="mark-rect role-mark view_660477a6310a01f8_0_marks" role="graphics-object" aria-roledescription="rect mark container"><path aria-label="Captured CO₂ (Mt): 9.45; plant_name: Ammonia plant (500 kt/y); Plant: Ammonia plant (500 kt/y); CO2 Captured (Mt): 9.450; Share (%): 2.8" role="graphics-symbol" aria-roledescription="bar" d="M0,0h44.99250000000001v21.759999999999998h-44.99250000000001Z" fill="#0068c9" opacity="1"/></g></g><path class="foreground" aria-hidden="true" d="" display="none"/></g></g></g><path class="foreground" aria-hidden="true" d="" display="none"/></g></g><g class="mark-text role-mark layer_1_marks" role="graphics-object" aria-roledescription="text mark container" pointer-events="none"><text aria-label="cumulative_captured_co2_mt: 51.3; plant_name: Coal-fired power plant (500 MW); co2_label: 51.3 Mt (15.3%)" role="graphics-symbol" aria-roledescription="text mark" text-anchor="start" transform="translate(248.24499999999998,76.1111111111111)" font-family="&quot;Source Sans&quot;, sans-serif" font-size="18px" font-weight="bold" fill="#ffabab" opacity="1">51.3 Mt (15.3%)</text><text aria-label="cumulative_captured_co2_mt: 25.74; plant_name: NGCC power plant (500 MW); co2_label: 25.7 Mt (7.7%)" role="graphics-symbol" aria-roledescription="text mark" text-anchor="start" transform="translate(126.55099999999999,104.55555555555554)" font-family="&quot;Source Sans&quot;, sans-serif" font-size="18px" font-weight="bold" fill="#ff8700" opacity="1">25.7 Mt (7.7%)</text><text aria-label="cumulative_captured_co2_mt: 64.125; plant_name: NGCC power plant (1000 MW); co2_label: 64.1 Mt (19.2%)" role="graphics-symbol" aria-roledescription="text mark" text-anchor="start" transform="translate(309.30625000000003,47.66666666666666)" font-family="&quot;Source Sans&quot;, sans-serif" font-size="18px" font-weight="bold" fill="#29b09d" opacity="1">64.1 Mt (19.2%)</text><text aria-label="cumulative_captured_co2_mt: 10.26; plant_name: NGCC power plant (400 MW); co2_label: 10.3 Mt (3.1%)" role="graphics-symbol" aria-roledescription="text mark" text-anchor="start" transform="translate(52.849000000000004,161.44444444444446)" font-family="&quot;Source Sans&quot;, sans-serif" font-size="18px" font-weight="bold" fill="#7defa1" opacity="1">10.3 Mt (3.1%)</text><text aria-label="cumulative_captured_co2_mt: 9; plant_name: Steel mill (300 kt/y); co2_label: 9.0 Mt (2.7%)" role="graphics-symbol" aria-roledescription="text mark" text-anchor="start" transform="translate(46.85000000000001,218.33333333333331)" font-family="&quot;Source Sans&quot;, sans-serif" font-size="18px" font-weight="bold" fill="#6d3fc0" opacity="1">9.0 Mt (2.7%)</text><text aria-label="cumulative_captured_co2_mt: 136.8; plant_name: Refinery (1 Mbarrels/d); co2_label: 136.8 Mt (40.9%)" role="graphics-symbol" aria-roledescription="text mark" text-anchor="start" transform="translate(655.32,19.222222222222214)" font-family="&quot;Source Sans&quot;, sans-serif" font-size="18px" font-weight="bold" fill="#ffd16a" opacity="1">136.8 Mt (40.9%)</text><text aria-label="cumulative_captured_co2_mt: 8.55; plant_name: Cement plant (1 Mt/y); co2_label: 8.6 Mt (2.6%)" role="graphics-symbol" aria-roledescription="text mark" text-anchor="start" transform="translate(44.7075,246.77777777777777)" font-family="&quot;Source Sans&quot;, sans-serif" font-size="18px" font-weight="bold" fill="#83c9ff" opacity="1">8.6 Mt (2.6%)</text><text aria-label="cumulative_captured_co2_mt: 19.305; plant_name: Cement plant (1.5 Mt/y); co2_label: 19.3 Mt (5.8%)" role="graphics-symbol" aria-roledescription="text mark" text-anchor="start" transform="translate(95.91325,133)" font-family="&quot;Source Sans&quot;, sans-serif" font-size="18px" font-weight="bold" fill="#ff2b2b" opacity="1">19.3 Mt (5.8%)</text><text aria-label="cumulative_captured_co2_mt: 9.45; plant_name: Ammonia plant (500 kt/y); co2_label: 9.5 Mt (2.8%)" role="graphics-symbol" aria-roledescription="text mark" text-anchor="start" transform="translate(48.99250000000001,189.88888888888889)" font-family="&quot;Source Sans&quot;, sans-serif" font-size="18px" font-weight="bold" fill="#0068c9" opacity="1">9.5 Mt (2.8%)</text></g><g class="mark-group role-title"><g transform="translate(-178.63880920410156,-31)"><path class="background" aria-hidden="true" d="M0,0h0v0h0Z" pointer-events="none"/><g><g class="mark-text role-title-text" role="graphics-symbol" aria-roledescription="title" aria-label="Title text 'Total Captured CO₂ Share'" pointer-events="none"><text text-anchor="start" transform="translate(0,13)" font-family="&quot;Source Sans&quot;, sans-serif" font-size="16px" font-weight="bold" fill="#31333F" opacity="1">Total Captured CO₂ Share</text></g></g><path class="foreground" aria-hidden="true" d="" pointer-events="none" display="none"/></g></g></g><path class="foreground" aria-hidden="true" d="" display="none"/></g></g></g><defs><clipPath id="clip82"><path d="M0,0L241.24499999999998,0C242.90074507348197,0,244.24499999999998,1.344254926518,244.24499999999998,3L244.24499999999998,18.759999999999998C244.24499999999998,20.415745073481997,242.90074507348197,21.759999999999998,241.24499999999998,21.759999999999998L0,21.759999999999998C0,21.759999999999998,0,21.759999999999998,0,21.759999999999998L0,0C0,0,0,0,0,0Z"/></clipPath><clipPath id="clip83"><path d="M0,0L119.55099999999999,0C121.20674507348198,0,122.55099999999999,1.344254926518,122.55099999999999,3L122.55099999999999,18.759999999999998C122.55099999999999,20.415745073481997,121.20674507348198,21.759999999999998,119.55099999999999,21.759999999999998L0,21.759999999999998C0,21.759999999999998,0,21.759999999999998,0,21.759999999999998L0,0C0,0,0,0,0,0Z"/></clipPath><clipPath id="clip84"><path d="M0,0L302.30625000000003,0C303.96199507348206,0,305.30625000000003,1.344254926518,305.30625000000003,3L305.30625000000003,18.759999999999998C305.30625000000003,20.415745073481997,303.96199507348206,21.759999999999998,302.30625000000003,21.759999999999998L0,21.759999999999998C0,21.759999999999998,0,21.759999999999998,0,21.759999999999998L0,0C0,0,0,0,0,0Z"/></clipPath><clipPath id="clip85"><path d="M0,0L45.849000000000004,0C47.504745073482006,0,48.849000000000004,1.344254926518,48.849000000000004,3L48.849000000000004,18.759999999999998C48.849000000000004,20.415745073481997,47.504745073482006,21.759999999999998,45.849000000000004,21.759999999999998L0,21.759999999999998C0,21.759999999999998,0,21.759999999999998,0,21.759999999999998L0,0C0,0,0,0,0,0Z"/></clipPath><clipPath id="clip86"><path d="M0,0L39.85000000000001,0C41.50574507348201,0,42.85000000000001,1.344254926518,42.85000000000001,3L42.85000000000001,18.759999999999998C42.85000000000001,20.415745073481997,41.50574507348201,21.759999999999998,39.85000000000001,21.759999999999998L0,21.759999999999998C0,21.759999999999998,0,21.759999999999998,0,21.759999999999998L0,0C0,0,0,0,0,0Z"/></clipPath><clipPath id="clip87"><path d="M0,0L648.32,0C649.975745073482,0,651.32,1.344254926518,651.32,3L651.32,18.759999999999998C651.32,20.415745073481997,649.975745073482,21.759999999999998,648.32,21.759999999999998L0,21.759999999999998C0,21.759999999999998,0,21.759999999999998,0,21.759999999999998L0,0C0,0,0,0,0,0Z"/></clipPath><clipPath id="clip88"><path d="M0,0L37.7075,0C39.363245073482005,0,40.7075,1.344254926518,40.7075,3L40.7075,18.759999999999998C40.7075,20.415745073481997,39.363245073482005,21.759999999999998,37.7075,21.759999999999998L0,21.759999999999998C0,21.759999999999998,0,21.759999999999998,0,21.759999999999998L0,0C0,0,0,0,0,0Z"/></clipPath><clipPath id="clip89"><path d="M0,0L88.91325,0C90.568995073482,0,91.91325,1.344254926518,91.91325,3L91.91325,18.759999999999998C91.91325,20.415745073481997,90.568995073482,21.759999999999998,88.91325,21.759999999999998L0,21.759999999999998C0,21.759999999999998,0,21.759999999999998,0,21.759999999999998L0,0C0,0,0,0,0,0Z"/></clipPath><clipPath id="clip90"><path d="M0,0L41.99250000000001,0C43.64824507348201,0,44.99250000000001,1.344254926518,44.99250000000001,3L44.99250000000001,18.759999999999998C44.99250000000001,20.415745073481997,43.64824507348201,21.759999999999998,41.99250000000001,21.759999999999998L0,21.759999999999998C0,21.759999999999998,0,21.759999999999998,0,21.759999999999998L0,0C0,0,0,0,0,0Z"/></clipPath></defs></svg>