<svg xmlns="http://www.w3.org/2000/svg" xmlns:xlink="http://www.w3.org/1999/xlink" version="1.1" class="marks" width="1037" height="350" viewBox="0 0 1037 350"><rect width="1037" height="350" fill="#ffffff"/><g fill="none" stroke-miterlimit="10" transform="translate(179,31)"><g class="mark-group role-frame root" role="graphics-object" aria-roledescription="group mark container"><g transform="translate(0,0)"><path class="background" aria-hidden="true" d="M0,0h858v256h-858Z" stroke-opacity="0" stroke-width="0"/><g><g class="mark-group role-axis" aria-hidden="true"><g transform="translate(0.5,256.5)"><path class="background" aria-hidden="true" d="M0,0h0v0h0Z" pointer-events="none"/><g><g class="mark-rule role-axis-grid" pointer-events="none"><line transform="translate(0,0)" x2="0" y2="-256" stroke="#e6eaf1" stroke-width="1" opacity="1"/><line transform="translate(33,0)" x2="0" y2="-256" stroke="#e6eaf1" stroke-width="1" opacity="1"/><line transform="translate(66,0)" x2="0" y2="-256" stroke="#e6eaf1" stroke-width="1" opacity="1"/><line transform="translate(99,0)" x2="0" y2="-256" stroke="#e6eaf1" stroke-width="1" opacity="1"/><line transform="translate(132,0)" x2="0" y2="-256" stroke="#e6eaf1" stroke-width="1" opacity="1"/><line transform="translate(165,0)" x2="0" y2="-256" stroke="#e6eaf1" stroke-width="1" opacity="1"/><line transform="translate(198,0)" x2="0" y2="-256" stroke="#e6eaf1" stroke-width="1" opacity="1"/><line transform="translate(231,0)" x2="0" y2="-256" stroke="#e6eaf1" stroke-width="1" opacity="1"/><line transform="translate(264,0)" x2="0" y2="-256" stroke="#e6eaf1" stroke-width="1" opacity="1"/><line transform="translate(297,0)" x2="0" y2="-256" stroke="#e6eaf1" stroke-width="1" opacity="1"/><line transform="translate(330,0)" x2="0" y2="-256" stroke="#e6eaf1" stroke-width="1" opacity="1"/><line transform="translate(363,0)" x2="0" y2="-256" stroke="#e6eaf1" stroke-width="1" opacity="1"/><line transform="translate(396,0)" x2="0" y2="-256" stroke="#e6eaf1" stroke-width="1" opacity="1"/><line transform="translate(429,0)" x2="0" y2="-256" stroke="#e6eaf1" stroke-width="1" opacity="1"/><line transform="translate(462,0)" x2="0" y2="-256" stroke="#e6eaf1" stroke-width="1" opacity="1"/><line transform="translate(495,0)" x2="0" y2="-256" stroke="#e6eaf1" stroke-width="1" opacity="1"/><line transform="translate(528,0)" x2="0" y2="-256" stroke="#e6eaf1" stroke-width="1" opacity="1"/><line transform="translate(561,0)" x2="0" y2="-256" stroke="#e6eaf1" stroke-width="1" opacity="1"/><line transform="translate(594,0)" x2="0" y2="-256" stroke="#e6eaf1" stroke-width="1" opacity="1"/><line transform="translate(627,0)" x2="0" y2="-256" stroke="#e6eaf1" stroke-width="1" opacity="1"/><line transform="translate(660,0)" x2="0" y2="-256" stroke="#e6eaf1" stroke-width="1" opacity="1"/><line transform="translate(693,0)" x2="0" y2="-256" stroke="#e6eaf1" stroke-width="1" opacity="1"/><line transform="translate(726,0)" x2="0" y2="-256" stroke="#e6eaf1" stroke-width="1" opacity="1"/><line transform="translate(759,0)" x2="0" y2="-256" stroke="#e6eaf1" stroke-width="1" opacity="1"/><line transform="translate(792,0)" x2="0" y2="-256" stroke="#e6eaf1" stroke-width="1" opacity="1"/><line transform="translate(825,0)" x2="0" y2="-256" stroke="#e6eaf1" stroke-width="1" opacity="1"/><line transform="translate(858,0)" x2="0" y2="-256" stroke="#e6eaf1" stroke-width="1" opacity="1"/></g></g><path class="foreground" aria-hidden="true" d="" pointer-events="none" display="none"/></g></g><g class="mark-group role-axis" role="graphics-symbol" aria-roledescription="axis" aria-label="X-axis titled 'Capture Cost (€)' for a linear scale with values from 0 to 13,000,000,000"><g transform="translate(0.5,256.5)"><path class="background" aria-hidden="true" d="M0,0h0v0h0Z" pointer-events="none"/><g><g class="mark-text role-axis-label" pointer-events="none"><text text-anchor="start" transform="translate(-1,15)" font-family="&quot;Source Sans&quot;, sans-serif" font-size="13px" font-style="normal" font-weight="400" fill="#808495" opacity="1">0</text><text text-anchor="middle" transform="translate(33,15)" font-family="&quot;Source Sans&quot;, sans-serif" font-size="13px" font-style="normal" font-weight="400" fill="#808495" opacity="0">500,000,000</text><text text-anchor="middle" transform="translate(66,15)" font-family="&quot;Source Sans&quot;, sans-serif" font-size="13px" font-style="normal" font-weight="400" fill="#808495" opacity="0">1,000,000,000</text><text text-anchor="middle" transform="translate(99,15)" font-family="&quot;Source Sans&quot;, sans-serif" font-size="13px" font-style="normal" font-weight="400" fill="#808495" opacity="0">1,500,000,000</text><text text-anchor="middle" transform="translate(132,15)" font-family="&quot;Source Sans&quot;, sans-serif" font-size="13px" font-style="normal" font-weight="400" fill="#808495" opacity="1">2,000,000,000</text><text text-anchor="middle" transform="translate(165,15)" font-family="&quot;Source Sans&quot;, sans-serif" font-size="13px" font-style="normal" font-weight="400" fill="#808495" opacity="0">2,500,000,000</text><text text-anchor="middle" transform="translate(198,15)" font-family="&quot;Source Sans&quot;, sans-serif" font-size="13px" font-style="normal" font-weight="400" fill="#808495" opacity="0">3,000,000,000</text><text text-anchor="middle" transform="translate(231,15)" font-family="&quot;Source Sans&quot;, sans-serif" font-size="13px" font-style="normal" font-weight="400" fill="#808495" opacity="0">3,500,000,000</text><text text-anchor="middle" transform="translate(264,15)" font-family="&quot;Source Sans&quot;, sans-serif" font-size="13px" font-style="normal" font-weight="400" fill="#808495" opacity="1">4,000,000,000</text><text text-anchor="middle" transform="translate(297,15)" font-family="&quot;Source Sans&quot;, sans-serif" font-size="13px" font-style="normal" font-weight="400" fill="#808495" opacity="0">4,500,000,000</text><text text-anchor="middle" transform="translate(330,15)" font-family="&quot;Source Sans&quot;, sans-serif" font-size="13px" font-style="normal" font-weight="400" fill="#808495" opacity="0">5,000,000,000</text><text text-anchor="middle" transform="translate(363,15)" font-family="&quot;Source Sans&quot;, sans-serif" font-size="13px" font-style="normal" font-weight="400" fill="#808495" opacity="0">5,500,000,000</text><text text-anchor="middle" transform="translate(396,15)" font-family="&quot;Source Sans&quot;, sans-serif" font-size="13px" font-style="normal" font-weight="400" fill="#808495" opacity="1">6,000,000,000</text><text text-anchor="middle" transform="translate(429,15)" font-family="&quot;Source Sans&quot;, sans-serif" font-size="13px" font-style="normal" font-weight="400" fill="#808495" opacity="0">6,500,000,000</text><text text-anchor="middle" transform="translate(462,15)" font-family="&quot;Source Sans&quot;, sans-serif" font-size="13px" font-style="normal" font-weight="400" fill="#808495" opacity="0">7,000,000,000</text><text text-anchor="middle" transform="translate(494.99999999999994,15)" font-family="&quot;Source Sans&quot;, sans-serif" font-size="13px" font-style="normal" font-weight="400" fill="#808495" opacity="0">7,500,000,000</text><text text-anchor="middle" transform="translate(528,15)" font-family="&quot;Source Sans&quot;, sans-serif" font-size="13px" font-style="normal" font-weight="400" fill="#808495" opacity="1">8,000,000,000</text><text text-anchor="middle" transform="translate(561,15)" font-family="&quot;Source Sans&quot;, sans-serif" font-size="13px" font-style="normal" font-weight="400" fill="#808495" opacity="0">8,500,000,000</text><text text-anchor="middle" transform="translate(594,15)" font-family="&quot;Source Sans&quot;, sans-serif" font-size="13px" font-style="normal" font-weight="400" fill="#808495" opacity="0">9,000,000,000</text><text text-anchor="middle" transform="translate(627,15)" font-family="&quot;Source Sans&quot;, sans-serif" font-size="13px" font-style="normal" font-weight="400" fill="#808495" opacity="0">9,500,000,000</text><text text-anchor="middle" transform="translate(660,15)" font-family="&quot;Source Sans&quot;, sans-serif" font-size="13px" font-style="normal" font-weight="400" fill="#808495" opacity="1">10,000,000,000</text><text text-anchor="middle" transform="translate(693,15)" font-family="&quot;Source Sans&quot;, sans-serif" font-size="13px" font-style="normal" font-weight="400" fill="#808495" opacity="0">10,500,000,000</text><text text-anchor="middle" transform="translate(726,15)" font-family="&quot;Source Sans&quot;, sans-serif" font-size="13px" font-style="normal" font-weight="400" fill="#808495" opacity="0">11,000,000,000</text><text text-anchor="middle" transform="translate(759,15)" font-family="&quot;Source Sans&quot;, sans-serif" font-size="13px" font-style="normal" font-weight="400" fill="#808495" opacity="0">11,500,000,000</text><text text-anchor="middle" transform="translate(792,15)" font-family="&quot;Source Sans&quot;, sans-serif" font-size="13px" font-style="normal" font-weight="400" fill="#808495" opacity="1">12,000,000,000</text><text text-anchor="middle" transform="translate(825,15)" font-family="&quot;Source Sans&quot;, sans-serif" font-size="13px" font-style="normal" font-weight="400" fill="#808495" opacity="0">12,500,000,000</text><text text-anchor="end" transform="translate(859,15)" font-family="&quot;Source Sans&quot;, sans-serif" font-size="13px" font-style="normal" font-weight="400" fill="#808495" opacity="0">13,000,000,000</text></g><g class="mark-text role-axis-title" pointer-events="none"><text text-anchor="middle" transform="translate(429,40)" font-family="&quot;Source Sans&quot;, sans-serif" font-size="15px" font-style="normal" font-weight="400" fill="#808495" opacity="1">Capture Cost (€)</text></g></g><path class="foreground" aria-hidden="true" d="" pointer-events="none" display="none"/></g></g><g class="mark-group role-axis" role="graphics-symbol" aria-roledescription="axis" aria-label="Y-axis for a discrete scale with 9 values: Refinery (1 Mbarrels/d), NGCC power plant (1000 MW), NGCC power plant (500 MW), Coal-fired power plant (500 MW), NGCC power plant (400 MW), ending with Ammonia plant (500 kt/y)"><g transform="translate(0.5,0.5)"><path class="background" aria-hidden="true" d="M0,0h0v0h0Z" pointer-events="none"/><g><g class="mark-text role-axis-label" pointer-events="none"><text text-anchor="end" transform="translate(-5,17.722222222222214)" font-family="&quot;Source Sans&quot;, sans-serif" font-size="13px" font-style="normal" font-weight="400" fill="#808495" opacity="1">Refinery (1 Mbarrels/d)</text><text text-anchor="end" transform="translate(-5,46.16666666666666)" font-family="&quot;Source Sans&quot;, sans-serif" font-size="13px" font-style="normal" font-weight="400" fill="#808495" opacity="1">NGCC power plant (1000 MW)</text><text text-anchor="end" transform="translate(-5,74.6111111111111)" font-family="&quot;Source Sans&quot;, sans-serif" font-size="13px" font-style="normal" font-weight="400" fill="#808495" opacity="1">NGCC power plant (500 MW)</text><text text-anchor="end" transform="translate(-5,103.05555555555554)" font-family="&quot;Source Sans&quot;, sans-serif" font-size="13px" font-style="normal" font-weight="400" fill="#808495" opacity="1">Coal-fired power plant (500 MW)</text><text text-anchor="end" transform="translate(-5,131.5)" font-family="&quot;Source Sans&quot;, sans-serif" font-size="13px" font-style="normal" font-weight="400" fill="#808495" opacity="1">NGCC power plant (400 MW)</text><text text-anchor="end" transform="translate(-5,159.94444444444446)" font-family="&quot;Source Sans&quot;, sans-serif" font-size="13px" font-style="normal" font-weight="400" fill="#808495" opacity="1">Cement plant (1.5 Mt/y)</text><text text-anchor="end" transform="translate(-5,188.38888888888889)" font-family="&quot;Source Sans&quot;, sans-serif" font-size="13px" font-style="normal" font-weight="400" fill="#808495" opacity="1">Steel mill (300 kt/y)</text><text text-anchor="end" transform="translate(-5,216.83333333333331)" font-family="&quot;Source Sans&quot;, sans-serif" font-size="13px" font-style="normal" font-weight="400" fill="#808495" opacity="1">Cement plant (1 Mt/y)</text><text text-anchor="end" transform="translate(-5,245.27777777777777)" font-family="&quot;Source Sans&quot;, sans-serif" font-size="13px" font-style="normal" font-weight="400" fill="#808495" opacity="1">Ammonia plant (500 kt/y)</text></g></g><path class="foreground" aria-hidden="true" d="" pointer-events="none" display="none"/></g></g><g class="mark-group role-scope" role="graphics-object" aria-roledescription="group mark container"><g transform="translate(0,88.67555555555555)"><path class="background" aria-hidden="true" d="M0,0L132.43200000000002,0C134.087745073482,0,135.43200000000002,1.344254926518,135.43200000000002,3L135.43200000000002,18.759999999999998C135.43200000000002,20.415745073481997,134.087745073482,21.759999999999998,132.43200000000002,21.759999999999998L0,21.759999999999998C0,21.759999999999998,0,21.759999999999998,0,21.759999999999998L0,0C0,0,0,0,0,0Z"/><g clip-path="url(#clip46)"><g class="mark-group role-scope" role="graphics-object" aria-roledescription="group mark container"><g transform="translate(0,0)"><path class="background" aria-hidden="true" d="M0,0h0v21.759999999999998h0Z"/><g><g class="mark-rect role-mark view_849dd5bac3ccdbb9_0_marks" role="graphics-object" aria-roledescription="rect mark container"><path aria-label="Capture Cost (€): 2052000000; plant_name: Coal-fired power plant (500 MW); Plant: Coal-fired power plant (500 MW); Share (%): 9.8" role="graphics-symbol" aria-roledescription="bar" d="M0,0h135.43200000000002v21.759999999999998h-135.43200000000002Z" fill="#ffabab" opacity="1"/></g></g><path class="foreground" aria-hidden="true" d="" display="none"/></g></g></g><path class="foreground" aria-hidden="true" d="" display="none"/></g><g transform="translate(0,60.231111111111105)"><path class="background" aria-hidden="true" d="M0,0L132.9072,0C134.56294507348198,0,135.9072,1.344254926518,135.9072,3L135.9072,18.759999999999998C135.9072,20.415745073481997,134.56294507348198,21.759999999999998,132.9072,21.759999999999998L0,21.759999999999998C0,21.759999999999998,0,21.759999999999998,0,21.759999999999998L0,0C0,0,0,0,0,0Z"/><g clip-path="url(#clip47)"><g class="mark-group role-scope" role="graphics-object" aria-roledescription="group mark container"><g transform="translate(0,0)"><path class="background" aria-hidden="true" d="M0,0h0v21.759999999999998h0Z"/><g><g class="mark-rect role-mark view_849dd5bac3ccdbb9_0_marks" role="graphics-object" aria-roledescription="rect mark container"><path aria-label="Capture Cost (€): 2059200000; plant_name: NGCC power plant (500 MW); Plant: NGCC power plant (500 MW); Share (%): 9.8" role="graphics-symbol" aria-roledescription="bar" d="M0,0h135.9072v21.759999999999998h-135.9072Z" fill="#ff8700" opacity="1"/></g></g><path class="foreground" aria-hidden="true" d="" display="none"/></g></g></g><path class="foreground" aria-hidden="true" d="" display="none"/></g><g transform="translate(0,31.78666666666666)"><path class="background" aria-hidden="true" d="M0,0L314.41875,0C316.074495073482,0,317.41875,1.344254926518,317.41875,3L317.41875,18.759999999999998C317.41875,20.415745073481997,316.074495073482,21.759999999999998,314.41875,21.759999999999998L0,21.759999999999998C0,21.759999999999998,0,21.759999999999998,0,21.759999999999998L0,0C0,0,0,0,0,0Z"/><g clip-path="url(#clip48)"><g class="mark-group role-scope" role="graphics-object" aria-roledescription="group mark container"><g transform="translate(0,0)"><path class="background" aria-hidden="true" d="M0,0h0v21.759999999999998h0Z"/><g><g class="mark-rect role-mark view_849dd5bac3ccdbb9_0_marks" role="graphics-object" aria-roledescription="rect mark container"><path aria-label="Capture Cost (€): 4809375000; plant_name: NGCC power plant (1000 MW); Plant: NGCC power plant (1000 MW); Share (%): 23.0" role="graphics-symbol" aria-roledescription="bar" d="M0,0h317.41875v21.759999999999998h-317.41875Z" fill="#29b09d" opacity="1"/></g></g><path class="foreground" aria-hidden="true" d="" display="none"/></g></g></g><path class="foreground" aria-hidden="true" d="" display="none"/></g><g transform="translate(0,117.11999999999999)"><path class="background" aria-hidden="true" d="M0,0L57.94440000000001,0C59.60014507348201,0,60.94440000000001,1.344254926518,60.94440000000001,3L60.94440000000001,18.759999999999998C60.94440000000001,20.415745073481997,59.60014507348201,21.759999999999998,57.94440000000001,21.759999999999998L0,21.759999999999998C0,21.759999999999998,0,21.759999999999998,0,21.759999999999998L0,0C0,0,0,0,0,0Z"/><g clip-path="url(#clip49)"><g class="mark-group role-scope" role="graphics-object" aria-roledescription="group mark container"><g transform="translate(0,0)"><path class="background" aria-hidden="true" d="M0,0h0v21.759999999999998h0Z"/><g><g class="mark-rect role-mark view_849dd5bac3ccdbb9_0_marks" role="graphics-object" aria-roledescription="rect mark container"><path aria-label="Capture Cost (€): 923400000; plant_name: NGCC power plant (400 MW); Plant: NGCC power plant (400 MW); Share (%): 4.4" role="graphics-symbol" aria-roledescription="bar" d="M0,0h60.94440000000001v21.759999999999998h-60.94440000000001Z" fill="#7defa1" opacity="1"/></g></g><path class="foreground" aria-hidden="true" d="" display="none"/></g></g></g><path class="foreground" aria-hidden="true" d="" display="none"/></g><g transform="translate(0,174.00888888888886)"><path class="background" aria-hidden="true" d="M0,0L16.008000000000006,0C17.663745073482005,0,19.008000000000006,1.344254926518,19.008000000000006,3L19.008000000000006,18.759999999999998C19.008000000000006,20.415745073481997,17.663745073482005,21.759999999999998,16.008000000000006,21.759999999999998L0,21.759999999999998C0,21.759999999999998,0,21.759999999999998,0,21.759999999999998L0,0C0,0,0,0,0,0Z"/><g clip-path="url(#clip50)"><g class="mark-group role-scope" role="graphics-object" aria-roledescription="group mark container"><g transform="translate(0,0)"><path class="background" aria-hidden="true" d="M0,0h0v21.759999999999998h0Z"/><g><g class="mark-rect role-mark view_849dd5bac3ccdbb9_0_marks" role="graphics-object" aria-roledescription="rect mark container"><path aria-label="Capture Cost (€): 288000000; plant_name: Steel mill (300 kt/y); Plant: Steel mill (300 kt/y); Share (%): 1.4" role="graphics-symbol" aria-roledescription="bar" d="M0,0h19.008000000000006v21.759999999999998h-19.008000000000006Z" fill="#6d3fc0" opacity="1"/></g></g><path class="foreground" aria-hidden="true" d="" display="none"/></g></g></g><path class="foreground" aria-hidden="true" d="" display="none"/></g><g transform="translate(0,3.342222222222217)"><path class="background" aria-hidden="true" d="M0,0L647.0736,0C648.729345073482,0,650.0736,1.344254926518,650.0736,3L650.0736,18.759999999999998C650.0736,20.415745073481997,648.729345073482,21.759999999999998,647.0736,21.759999999999998L0,21.759999999999998C0,21.759999999999998,0,21.759999999999998,0,21.759999999999998L0,0C0,0,0,0,0,0Z"/><g clip-path="url(#clip51)"><g class="mark-group role-scope" role="graphics-object" aria-roledescription="group mark container"><g transform="translate(0,0)"><path class="background" aria-hidden="true" d="M0,0h0v21.759999999999998h0Z"/><g><g class="mark-rect role-mark view_849dd5bac3ccdbb9_0_marks" role="graphics-object" aria-roledescription="rect mark container"><path aria-label="Capture Cost (€): 9849600000; plant_name: Refinery (1 Mbarrels/d); Plant: Refinery (1 Mbarrels/d); Share (%): 47.1" role="graphics-symbol" aria-roledescription="bar" d="M0,0h650.0736v21.759999999999998h-650.0736Z" fill="#ffd16a" opacity="1"/></g></g><path class="foreground" aria-hidden="true" d="" display="none"/></g></g></g><path class="foreground" aria-hidden="true" d="" display="none"/></g><g transform="translate(0,202.4533333333333)"><path class="background" aria-hidden="true" d="M0,0L13.929000000000002,0C15.584745073482003,0,16.929000000000002,1.344254926518,16.929000000000002,3L16.929000000000002,18.759999999999998C16.929000000000002,20.415745073481997,15.584745073482003,21.759999999999998,13.929000000000002,21.759999999999998L0,21.759999999999998C0,21.759999999999998,0,21.759999999999998,0,21.759999999999998L0,0C0,0,0,0,0,0Z"/><g clip-path="url(#clip52)"><g class="mark-group role-scope" role="graphics-object" aria-roledescription="group mark container"><g transform="translate(0,0)"><path class="background" aria-hidden="true" d="M0,0h0v21.759999999999998h0Z"/><g><g class="mark-rect role-mark view_849dd5bac3ccdbb9_0_marks" role="graphics-object" aria-roledescription="rect mark container"><path aria-label="Capture Cost (€): 256500000; plant_name: Cement plant (1 Mt/y); Plant: Cement plant (1 Mt/y); Share (%): 1.2" role="graphics-symbol" aria-roledescription="bar" d="M0,0h16.929000000000002v21.759999999999998h-16.929000000000002Z" fill="#83c9ff" opacity="1"/></g></g><path class="foreground" aria-hidden="true" d="" display="none"/></g></g></g><path class="foreground" aria-hidden="true" d="" display="none"/></g><g transform="translate(0,145.56444444444443)"><path class="background" aria-hidden="true" d="M0,0L32.67564,0C34.331385073482004,0,35.67564,1.344254926518,35.67564,3L35.67564,18.759999999999998C35.67564,20.415745073481997,34.331385073482004,21.759999999999998,32.67564,21.759999999999998L0,21.759999999999998C0,21.759999999999998,0,21.759999999999998,0,21.759999999999998L0,0C0,0,0,0,0,0Z"/><g clip-path="url(#clip53)"><g class="mark-group role-scope" role="graphics-object" aria-roledescription="group mark container"><g transform="translate(0,0)"><path class="background" aria-hidden="true" d="M0,0h0v21.759999999999998h0Z"/><g><g class="mark-rect role-mark view_849dd5bac3ccdbb9_0_marks" role="graphics-object" aria-roledescription="rect mark container"><path aria-label="Capture Cost (€): 540540000; plant_name: Cement plant (1.5 Mt/y); Plant: Cement plant (1.5 Mt/y); Share (%): 2.6" role="graphics-symbol" aria-roledescription="bar" d="M0,0h35.67564v21.759999999999998h-35.67564Z" fill="#ff2b2b" opacity="1"/></g></g><path class="foreground" aria-hidden="true" d="" display="none"/></g></g></g><path class="foreground" aria-hidden="true" d="" display="none"/></g><g transform="translate(0,230.89777777777775)"><path class="background" aria-hidden="true" d="M0,0L5.731800000000002,0C7.387545073482002,0,8.731800000000002,1.344254926518,8.731800000000002,3L8.731800000000002,18.759999999999998C8.731800000000002,20.415745073481997,7.387545073482002,21.759999999999998,5.731800000000002,21.759999999999998L0,21.759999999999998C0,21.759999999999998,0,21.759999999999998,0,21.759999999999998L0,0C0,0,0,0,0,0Z"/><g clip-path="url(#clip54)"><g class="mark-group role-scope" role="graphics-object" aria-roledescription="group mark container"><g transform="translate(0,0)"><path class="background" aria-hidden="true" d="M0,0h0v21.759999999999998h0Z"/><g><g class="mark-rect role-mark view_849dd5bac3ccdbb9_0_marks" role="graphics-object" aria-roledescription="rect mark container"><path aria-label="Capture Cost (€): 132300000; plant_name: Ammonia plant (500 kt/y); Plant: Ammonia plant (500 kt/y); Share (%): 0.6" role="graphics-symbol" aria-roledescription="bar" d="M0,0h8.731800000000002v21.759999999999998h-8.731800000000002Z" fill="#0068c9" opacity="1"/></g></g><path class="foreground" aria-hidden="true" d="" display="none"/></g></g></g><path class="foreground" aria-hidden="true" d="" display="none"/></g></g><g class="mark-text role-mark layer_1_marks" role="graphics-object" aria-roledescription="text mark container" pointer-events="none"><text aria-label="total_capture_cost_euro: 2052000000; plant_name: Coal-fired power plant (500 MW); cost_label: €2.05B (9.8%)" role="graphics-symbol" aria-roledescription="text mark" text-anchor="start" transform="translate(139.43200000000002,104.55555555555554)" font-family="&quot;Source Sans&quot;, sans-serif" font-size="18px" font-weight="bold" fill="#ffabab" opacity="1">€2.05B (9.8%)</text><text aria-label="total_capture_cost_euro: 2059200000; plant_name: NGCC power plant (500 MW); cost_label: €2.06B (9.8%)" role="graphics-symbol" aria-roledescription="text mark" text-anchor="start" transform="translate(139.9072,76.1111111111111)" font-family="&quot;Source Sans&quot;, sans-serif" font-size="18px" font-weight="bold" fill="#ff8700" opacity="1">€2.06B (9.8%)</text><text aria-label="total_capture_cost_euro: 4809375000; plant_name: NGCC power plant (1000 MW); cost_label: €4.81B (23.0%)" role="graphics-symbol" aria-roledescription="text mark" text-anchor="start" transform="translate(321.41875,47.66666666666666)" font-family="&quot;Source Sans&quot;, sans-serif" font-size="18px" font-weight="bold" fill="#29b09d" opacity="1">€4.81B (23.0%)</text><text aria-label="total_capture_cost_euro: 923400000; plant_name: NGCC power plant (400 MW); cost_label: €923.4M (4.4%)" role="graphics-symbol" aria-roledescription="text mark" text-anchor="start" transform="translate(64.9444,133)" font-family="&quot;Source Sans&quot;, sans-serif" font-size="18px" font-weight="bold" fill="#7defa1" opacity="1">€923.4M (4.4%)</text><text aria-label="total_capture_cost_euro: 288000000; plant_name: Steel mill (300 kt/y); cost_label: €288.0M (1.4%)" role="graphics-symbol" aria-roledescription="text mark" text-anchor="start" transform="translate(23.008000000000006,189.88888888888889)" font-family="&quot;Source Sans&quot;, sans-serif" font-size="18px" font-weight="bold" fill="#6d3fc0" opacity="1">€288.0M (1.4%)</text><text aria-label="total_capture_cost_euro: 9849600000; plant_name: Refinery (1 Mbarrels/d); cost_label: €9.85B (47.1%)" role="graphics-symbol" aria-roledescription="text mark" text-anchor="start" transform="translate(654.0736,19.222222222222214)" font-family="&quot;Source Sans&quot;, sans-serif" font-size="18px" font-weight="bold" fill="#ffd16a" opacity="1">€9.85B (47.1%)</text><text aria-label="total_capture_cost_euro: 256500000; plant_name: Cement plant (1 Mt/y); cost_label: €256.5M (1.2%)" role="graphics-symbol" aria-roledescription="text mark" text-anchor="start" transform="translate(20.929000000000002,218.33333333333331)" font-family="&quot;Source Sans&quot;, sans-serif" font-size="18px" font-weight="bold" fill="#83c9ff" opacity="1">€256.5M (1.2%)</text><text aria-label="total_capture_cost_euro: 540540000; plant_name: Cement plant (1.5 Mt/y); cost_label: €540.5M (2.6%)" role="graphics-symbol" aria-roledescription="text mark" text-anchor="start" transform="translate(39.67564,161.44444444444446)" font-family="&quot;Source Sans&quot;, sans-serif" font-size="18px" font-weight="bold" fill="#ff2b2b" opacity="1">€540.5M (2.6%)</text><text aria-label="total_capture_cost_euro: 132300000; plant_name: Ammonia plant (500 kt/y); cost_label: €132.3M (0.6%)" role="graphics-symbol" aria-roledescription="text mark" text-anchor="start" transform="translate(12.731800000000002,246.77777777777777)" font-family="&quot;Source Sans&quot;, sans-serif" font-size="18px" font-weight="bold" fill="#0068c9" opacity="1">€132.3M (0.6%)</text></g><g class="mark-group role-title"><g transform="translate(-178.63880920410156,-31)"><path class="background" aria-hidden="true" d="M0,0h0v0h0Z" pointer-events="none"/><g><g class="mark-text role-title-text" role="graphics-symbol" aria-roledescription="title" aria-label="Title text 'Total Capture Cost Share'" pointer-events="none"><text text-anchor="start" transform="translate(0,13)" font-family="&quot;Source Sans&quot;, sans-serif" font-size="16px" font-weight="bold" fill="#31333F" opacity="1">Total Capture Cost Share</text></g></g><path class="foreground" aria-hidden="true" d="" pointer-events="none" display="none"/></g></g></g><path class="foreground" aria-hidden="true" d="" display="none"/></g></g></g><defs><clipPath id="clip46"><path d="M0,0L132.43200000000002,0C134.087745073482,0,135.43200000000002,1.344254926518,135.43200000000002,3L135.43200000000002,18.759999999999998C135.43200000000002,20.415745073481997,134.087745073482,21.759999999999998,132.43200000000002,21.759999999999998L0,21.759999999999998C0,21.759999999999998,0,21.759999999999998,0,21.759999999999998L0,0C0,0,0,0,0,0Z"/></clipPath><clipPath id="clip47"><path d="M0,0L132.9072,0C134.56294507348198,0,135.9072,1.344254926518,135.9072,3L135.9072,18.759999999999998C135.9072,20.415745073481997,134.56294507348198,21.759999999999998,132.9072,21.759999999999998L0,21.759999999999998C0,21.759999999999998,0,21.759999999999998,0,21.759999999999998L0,0C0,0,0,0,0,0Z"/></clipPath><clipPath id="clip48"><path d="M0,0L314.41875,0C316.074495073482,0,317.41875,1.344254926518,317.41875,3L317.41875,18.759999999999998C317.41875,20.415745073481997,316.074495073482,21.759999999999998,314.41875,21.759999999999998L0,21.759999999999998C0,21.759999999999998,0,21.759999999999998,0,21.759999999999998L0,0C0,0,0,0,0,0Z"/></clipPath><clipPath id="clip49"><path d="M0,0L57.94440000000001,0C59.60014507348201,0,60.94440000000001,1.344254926518,60.94440000000001,3L60.94440000000001,18.759999999999998C60.94440000000001,20.415745073481997,59.60014507348201,21.759999999999998,57.94440000000001,21.759999999999998L0,21.759999999999998C0,21.759999999999998,0,21.759999999999998,0,21.759999999999998L0,0C0,0,0,0,0,0Z"/></clipPath><clipPath id="clip50"><path d="M0,0L16.008000000000006,0C17.663745073482005,0,19.008000000000006,1.344254926518,19.008000000000006,3L19.008000000000006,18.759999999999998C19.008000000000006,20.415745073481997,17.663745073482005,21.759999999999998,16.008000000000006,21.759999999999998L0,21.759999999999998C0,21.759999999999998,0,21.759999999999998,0,21.759999999999998L0,0C0,0,0,0,0,0Z"/></clipPath><clipPath id="clip51"><path d="M0,0L647.0736,0C648.729345073482,0,650.0736,1.344254926518,650.0736,3L650.0736,18.759999999999998C650.0736,20.415745073481997,648.729345073482,21.759999999999998,647.0736,21.759999999999998L0,21.759999999999998C0,21.759999999999998,0,21.759999999999998,0,21.759999999999998L0,0C0,0,0,0,0,0Z"/></clipPath><clipPath id="clip52"><path d="M0,0L13.929000000000002,0C15.584745073482003,0,16.929000000000002,1.344254926518,16.929000000000002,3L16.929000000000002,18.759999999999998C16.929000000000002,20.415745073481997,15.584745073482003,21.759999999999998,13.929000000000002,21.759999999999998L0,21.759999999999998C0,21.759999999999998,0,21.759999999999998,0,21.759999999999998L0,0C0,0,0,0,0,0Z"/></clipPath><clipPath id="clip53"><path d="M0,0L32.67564,0C34.331385073482004,0,35.67564,1.344254926518,35.67564,3L35.67564,18.759999999999998C35.67564,20.415745073481997,34.331385073482004,21.759999999999998,32.67564,21.759999999999998L0,21.759999999999998C0,21.759999999999998,0,21.759999999999998,0,21.759999999999998L0,0C0,0,0,0,0,0Z"/></clipPath><clipPath id="clip54"><path d="M0,0L5.731800000000002,0C7.387545073482002,0,8.731800000000002,1.344254926518,8.731800000000002,3L8.731800000000002,18.759999999999998C8.731800000000002,20.415745073481997,7.387545073482002,21.759999999999998,5.731800000000002,21.759999999999998L0,21.759999999999998C0,21.759999999999998,0,21.759999999999998,0,21.759999999999998L0,0C0,0,0,0,0,0Z"/></clipPath></defs></svg>