<svg xmlns="http://www.w3.org/2000/svg" xmlns:xlink="http://www.w3.org/1999/xlink" version="1.1" class="marks" width="923" height="543" viewBox="0 0 923 543"><rect width="923" height="543" fill="white"/><g fill="none" stroke-miterlimit="10" transform="translate(218,38)"><g class="mark-group role-frame root" role="graphics-object" aria-roledescription="group mark container"><g transform="translate(0,0)"><path class="background" aria-hidden="true" d="M0.5,0.5h700v450h-700Z" stroke="#ddd" stroke-opacity="0"/><g><g class="mark-group role-axis" aria-hidden="true"><g transform="translate(0.5,450.5)"><path class="background" aria-hidden="true" d="M0,0h0v0h0Z" pointer-events="none"/><g><g class="mark-rule role-axis-grid" pointer-events="none"><line transform="translate(0,0)" x2="0" y2="-450" stroke="#ddd" stroke-width="1" opacity="1"/><line transform="translate(108,0)" x2="0" y2="-450" stroke="#ddd" stroke-width="1" opacity="1"/><line transform="translate(215,0)" x2="0" y2="-450" stroke="#ddd" stroke-width="1" opacity="1"/><line transform="translate(323,0)" x2="0" y2="-450" stroke="#ddd" stroke-width="1" opacity="1"/><line transform="translate(431,0)" x2="0" y2="-450" stroke="#ddd" stroke-width="1" opacity="1"/><line transform="translate(538,0)" x2="0" y2="-450" stroke="#ddd" stroke-width="1" opacity="1"/><line transform="translate(646,0)" x2="0" y2="-450" stroke="#ddd" stroke-width="1" opacity="1"/></g></g><path class="foreground" aria-hidden="true" d="" pointer-events="none" display="none"/></g></g><g class="mark-group role-axis" role="graphics-symbol" aria-roledescription="axis" aria-label="X-axis titled 'Capture Cost (€)' for a linear scale with values from 0 to 13,000,000,000"><g transform="translate(0.5,450.5)"><path class="background" aria-hidden="true" d="M0,0h0v0h0Z" pointer-events="none"/><g><g class="mark-rule role-axis-tick" pointer-events="none"><line transform="translate(0,0)" x2="0" y2="5" stroke="#000000" stroke-width="1" opacity="1"/><line transform="translate(108,0)" x2="0" y2="5" stroke="#000000" stroke-width="1" opacity="1"/><line transform="translate(215,0)" x2="0" y2="5" stroke="#000000" stroke-width="1" opacity="1"/><line transform="translate(323,0)" x2="0" y2="5" stroke="#000000" stroke-width="1" opacity="1"/><line transform="translate(431,0)" x2="0" y2="5" stroke="#000000" stroke-width="1" opacity="1"/><line transform="translate(538,0)" x2="0" y2="5" stroke="#000000" stroke-width="1" opacity="1"/><line transform="translate(646,0)" x2="0" y2="5" stroke="#000000" stroke-width="1" opacity="1"/></g><g class="mark-text role-axis-label" pointer-events="none"><text text-anchor="start" transform="translate(0,21)" font-family="sans-serif" font-size="14px" fill="#000000" opacity="1">€0</text><text text-anchor="middle" transform="translate(107.6923076923077,21)" font-family="sans-serif" font-size="14px" fill="#000000" opacity="1">€2B</text><text text-anchor="middle" transform="translate(215.3846153846154,21)" font-family="sans-serif" font-size="14px" fill="#000000" opacity="1">€4B</text><text text-anchor="middle" transform="translate(323.0769230769231,21)" font-family="sans-serif" font-size="14px" fill="#000000" opacity="1">€6B</text><text text-anchor="middle" transform="translate(430.7692307692308,21)" font-family="sans-serif" font-size="14px" fill="#000000" opacity="1">€8B</text><text text-anchor="middle" transform="translate(538.4615384615385,21)" font-family="sans-serif" font-size="14px" fill="#000000" opacity="1">€10B</text><text text-anchor="middle" transform="translate(646.1538461538462,21)" font-family="sans-serif" font-size="14px" fill="#000000" opacity="1">€12B</text></g><g class="mark-rule role-axis-domain" pointer-events="none"><line transform="translate(0,0)" x2="700" y2="0" stroke="#000000" stroke-width="1" opacity="1"/></g><g class="mark-text role-axis-title" pointer-events="none"><text text-anchor="middle" transform="translate(350,47)" font-family="sans-serif" font-size="16px" font-weight="bold" fill="#000000" opacity="1">Capture Cost (€)</text></g></g><path class="foreground" aria-hidden="true" d="" pointer-events="none" display="none"/></g></g><g class="mark-group role-axis" role="graphics-symbol" aria-roledescription="axis" aria-label="Y-axis for a discrete scale with 9 values: Refinery (1 Mbarrels/d), NGCC power plant (1000 MW), NGCC power plant (500 MW), Coal-fired power plant (500 MW), NGCC power plant (400 MW), ending with Ammonia plant (500 kt/y)"><g transform="translate(0.5,0.5)"><path class="background" aria-hidden="true" d="M0,0h0v0h0Z" pointer-events="none"/><g><g class="mark-rule role-axis-tick" pointer-events="none"><line transform="translate(0,25)" x2="-5" y2="0" stroke="#000000" stroke-width="1" opacity="1"/><line transform="translate(0,75)" x2="-5" y2="0" stroke="#000000" stroke-width="1" opacity="1"/><line transform="translate(0,125)" x2="-5" y2="0" stroke="#000000" stroke-width="1" opacity="1"/><line transform="translate(0,175)" x2="-5" y2="0" stroke="#000000" stroke-width="1" opacity="1"/><line transform="translate(0,225)" x2="-5" y2="0" stroke="#000000" stroke-width="1" opacity="1"/><line transform="translate(0,275)" x2="-5" y2="0" stroke="#000000" stroke-width="1" opacity="1"/><line transform="translate(0,325)" x2="-5" y2="0" stroke="#000000" stroke-width="1" opacity="1"/><line transform="translate(0,375)" x2="-5" y2="0" stroke="#000000" stroke-width="1" opacity="1"/><line transform="translate(0,425)" x2="-5" y2="0" stroke="#000000" stroke-width="1" opacity="1"/></g><g class="mark-text role-axis-label" pointer-events="none"><text text-anchor="end" transform="translate(-10,28.5)" font-family="sans-serif" font-size="14px" fill="#000000" opacity="1">Refinery (1 Mbarrels/d)</text><text text-anchor="end" transform="translate(-10,78.5)" font-family="sans-serif" font-size="14px" fill="#000000" opacity="1">NGCC power plant (1000 MW)</text><text text-anchor="end" transform="translate(-10,128.5)" font-family="sans-serif" font-size="14px" fill="#000000" opacity="1">NGCC power plant (500 MW)</text><text text-anchor="end" transform="translate(-10,178.5)" font-family="sans-serif" font-size="14px" fill="#000000" opacity="1">Coal-fired power plant (500 MW)</text><text text-anchor="end" transform="translate(-10,228.5)" font-family="sans-serif" font-size="14px" fill="#000000" opacity="1">NGCC power plant (400 MW)</text><text text-anchor="end" transform="translate(-10,278.5)" font-family="sans-serif" font-size="14px" fill="#000000" opacity="1">Cement plant (1.5 Mt/y)</text><text text-anchor="end" transform="translate(-10,328.5)" font-family="sans-serif" font-size="14px" fill="#000000" opacity="1">Steel mill (300 kt/y)</text><text text-anchor="end" transform="translate(-10,378.5)" font-family="sans-serif" font-size="14px" fill="#000000" opacity="1">Cement plant (1 Mt/y)</text><text text-anchor="end" transform="translate(-10,428.5)" font-family="sans-serif" font-size="14px" fill="#000000" opacity="1">Ammonia plant (500 kt/y)</text></g><g class="mark-rule role-axis-domain" pointer-events="none"><line transform="translate(0,0)" x2="0" y2="450" stroke="#000000" stroke-width="1" opacity="1"/></g></g><path class="foreground" aria-hidden="true" d="" pointer-events="none" display="none"/></g></g><g class="mark-group role-scope" role="graphics-object" aria-roledescription="group mark container"><g transform="translate(0,152.5)"><path class="background" aria-hidden="true" d="M0,0L107.4923076923077,0C109.1480527657897,0,110.4923076923077,1.344254926518,110.4923076923077,3L110.4923076923077,42C110.4923076923077,43.655745073482,109.1480527657897,45,107.4923076923077,45L0,45C0,45,0,45,0,45L0,0C0,0,0,0,0,0Z"/><g clip-path="url(#clip154)"><g class="mark-group role-scope" role="graphics-object" aria-roledescription="group mark container"><g transform="translate(0,0)"><path class="background" aria-hidden="true" d="M0,0h0v45h0Z"/><g><g class="mark-rect role-mark layer_0_marks" role="graphics-object" aria-roledescription="rect mark container"><path aria-label="Capture Cost (€): 2052000000; plant_name: Coal-fired power plant (500 MW); Plant: Coal-fired power plant (500 MW); Share (%): 9.8" role="graphics-symbol" aria-roledescription="bar" d="M0,0h110.4923076923077v45h-110.4923076923077Z" fill="#54a24b" opacity="1"/></g></g><path class="foreground" aria-hidden="true" d="" display="none"/></g></g></g><path class="foreground" aria-hidden="true" d="" display="none"/></g><g transform="translate(0,102.5)"><path class="background" aria-hidden="true" d="M0,0L107.88,0C109.53574507348199,0,110.88,1.344254926518,110.88,3L110.88,42C110.88,43.655745073482,109.53574507348199,45,107.88,45L0,45C0,45,0,45,0,45L0,0C0,0,0,0,0,0Z"/><g clip-path="url(#clip155)"><g class="mark-group role-scope" role="graphics-object" aria-roledescription="group mark container"><g transform="translate(0,0)"><path class="background" aria-hidden="true" d="M0,0h0v45h0Z"/><g><g class="mark-rect role-mark layer_0_marks" role="graphics-object" aria-roledescription="rect mark container"><path aria-label="Capture Cost (€): 2059200000; plant_name: NGCC power plant (500 MW); Plant: NGCC power plant (500 MW); Share (%): 9.8" role="graphics-symbol" aria-roledescription="bar" d="M0,0h110.88v45h-110.88Z" fill="#ff9da6" opacity="1"/></g></g><path class="foreground" aria-hidden="true" d="" display="none"/></g></g></g><path class="foreground" aria-hidden="true" d="" display="none"/></g><g transform="translate(0,52.5)"><path class="background" aria-hidden="true" d="M0,0L255.9663461538462,0C257.6220912273282,0,258.9663461538462,1.344254926518,258.9663461538462,3L258.9663461538462,42C258.9663461538462,43.655745073482,257.6220912273282,45,255.9663461538462,45L0,45C0,45,0,45,0,45L0,0C0,0,0,0,0,0Z"/><g clip-path="url(#clip156)"><g class="mark-group role-scope" role="graphics-object" aria-roledescription="group mark container"><g transform="translate(0,0)"><path class="background" aria-hidden="true" d="M0,0h0v45h0Z"/><g><g class="mark-rect role-mark layer_0_marks" role="graphics-object" aria-roledescription="rect mark container"><path aria-label="Capture Cost (€): 4809375000; plant_name: NGCC power plant (1000 MW); Plant: NGCC power plant (1000 MW); Share (%): 23.0" role="graphics-symbol" aria-roledescription="bar" d="M0,0h258.9663461538462v45h-258.9663461538462Z" fill="#eeca3b" opacity="1"/></g></g><path class="foreground" aria-hidden="true" d="" display="none"/></g></g></g><path class="foreground" aria-hidden="true" d="" display="none"/></g><g transform="translate(0,202.5)"><path class="background" aria-hidden="true" d="M0,0L46.72153846153847,0C48.377283535020474,0,49.72153846153847,1.344254926518,49.72153846153847,3L49.72153846153847,42C49.72153846153847,43.655745073482,48.377283535020474,45,46.72153846153847,45L0,45C0,45,0,45,0,45L0,0C0,0,0,0,0,0Z"/><g clip-path="url(#clip157)"><g class="mark-group role-scope" role="graphics-object" aria-roledescription="group mark container"><g transform="translate(0,0)"><path class="background" aria-hidden="true" d="M0,0h0v45h0Z"/><g><g class="mark-rect role-mark layer_0_marks" role="graphics-object" aria-roledescription="rect mark container"><path aria-label="Capture Cost (€): 923400000; plant_name: NGCC power plant (400 MW); Plant: NGCC power plant (400 MW); Share (%): 4.4" role="graphics-symbol" aria-roledescription="bar" d="M0,0h49.72153846153847v45h-49.72153846153847Z" fill="#b279a2" opacity="1"/></g></g><path class="foreground" aria-hidden="true" d="" display="none"/></g></g></g><path class="foreground" aria-hidden="true" d="" display="none"/></g><g transform="translate(0,302.5)"><path class="background" aria-hidden="true" d="M0,0L12.507692307692311,0C14.163437381174312,0,15.507692307692311,1.344254926518,15.507692307692311,3L15.507692307692311,42C15.507692307692311,43.655745073482,14.163437381174312,45,12.507692307692311,45L0,45C0,45,0,45,0,45L0,0C0,0,0,0,0,0Z"/><g clip-path="url(#clip158)"><g class="mark-group role-scope" role="graphics-object" aria-roledescription="group mark container"><g transform="translate(0,0)"><path class="background" aria-hidden="true" d="M0,0h0v45h0Z"/><g><g class="mark-rect role-mark layer_0_marks" role="graphics-object" aria-roledescription="rect mark container"><path aria-label="Capture Cost (€): 288000000; plant_name: Steel mill (300 kt/y); Plant: Steel mill (300 kt/y); Share (%): 1.4" role="graphics-symbol" aria-roledescription="bar" d="M0,0h15.507692307692311v45h-15.507692307692311Z" fill="#bab0ac" opacity="1"/></g></g><path class="foreground" aria-hidden="true" d="" display="none"/></g></g></g><path class="foreground" aria-hidden="true" d="" display="none"/></g><g transform="translate(0,2.5)"><path class="background" aria-hidden="true" d="M0,0L527.363076923077,0C529.0188219965589,0,530.363076923077,1.344254926518,530.363076923077,3L530.363076923077,42C530.363076923077,43.655745073482,529.0188219965589,45,527.363076923077,45L0,45C0,45,0,45,0,45L0,0C0,0,0,0,0,0Z"/><g clip-path="url(#clip159)"><g class="mark-group role-scope" role="graphics-object" aria-roledescription="group mark container"><g transform="translate(0,0)"><path class="background" aria-hidden="true" d="M0,0h0v45h0Z"/><g><g class="mark-rect role-mark layer_0_marks" role="graphics-object" aria-roledescription="rect mark container"><path aria-label="Capture Cost (€): 9849600000; plant_name: Refinery (1 Mbarrels/d); Plant: Refinery (1 Mbarrels/d); Share (%): 47.1" role="graphics-symbol" aria-roledescription="bar" d="M0,0h530.363076923077v45h-530.363076923077Z" fill="#9d755d" opacity="1"/></g></g><path class="foreground" aria-hidden="true" d="" display="none"/></g></g></g><path class="foreground" aria-hidden="true" d="" display="none"/></g><g transform="translate(0,352.5)"><path class="background" aria-hidden="true" d="M0,0L10.811538461538463,0C12.467283535020464,0,13.811538461538463,1.344254926518,13.811538461538463,3L13.811538461538463,42C13.811538461538463,43.655745073482,12.467283535020464,45,10.811538461538463,45L0,45C0,45,0,45,0,45L0,0C0,0,0,0,0,0Z"/><g clip-path="url(#clip160)"><g class="mark-group role-scope" role="graphics-object" aria-roledescription="group mark container"><g transform="translate(0,0)"><path class="background" aria-hidden="true" d="M0,0h0v45h0Z"/><g><g class="mark-rect role-mark layer_0_marks" role="graphics-object" aria-roledescription="rect mark container"><path aria-label="Capture Cost (€): 256500000; plant_name: Cement plant (1 Mt/y); Plant: Cement plant (1 Mt/y); Share (%): 1.2" role="graphics-symbol" aria-roledescription="bar" d="M0,0h13.811538461538463v45h-13.811538461538463Z" fill="#f58518" opacity="1"/></g></g><path class="foreground" aria-hidden="true" d="" display="none"/></g></g></g><path class="foreground" aria-hidden="true" d="" display="none"/></g><g transform="translate(0,252.5)"><path class="background" aria-hidden="true" d="M0,0L26.105999999999998,0C27.761745073481997,0,29.105999999999998,1.344254926518,29.105999999999998,3L29.105999999999998,42C29.105999999999998,43.655745073482,27.761745073481997,45,26.105999999999998,45L0,45C0,45,0,45,0,45L0,0C0,0,0,0,0,0Z"/><g clip-path="url(#clip161)"><g class="mark-group role-scope" role="graphics-object" aria-roledescription="group mark container"><g transform="translate(0,0)"><path class="background" aria-hidden="true" d="M0,0h0v45h0Z"/><g><g class="mark-rect role-mark layer_0_marks" role="graphics-object" aria-roledescription="rect mark container"><path aria-label="Capture Cost (€): 540540000; plant_name: Cement plant (1.5 Mt/y); Plant: Cement plant (1.5 Mt/y); Share (%): 2.6" role="graphics-symbol" aria-roledescription="bar" d="M0,0h29.105999999999998v45h-29.105999999999998Z" fill="#e45756" opacity="1"/></g></g><path class="foreground" aria-hidden="true" d="" display="none"/></g></g></g><path class="foreground" aria-hidden="true" d="" display="none"/></g><g transform="translate(0,402.5)"><path class="background" aria-hidden="true" d="M0,0L4.123846153846155,0C5.7795912273281544,0,7.123846153846155,1.344254926518,7.123846153846155,3L7.123846153846155,42C7.123846153846155,43.655745073482,5.7795912273281544,45,4.123846153846155,45L0,45C0,45,0,45,0,45L0,0C0,0,0,0,0,0Z"/><g clip-path="url(#clip162)"><g class="mark-group role-scope" role="graphics-object" aria-roledescription="group mark container"><g transform="translate(0,0)"><path class="background" aria-hidden="true" d="M0,0h0v45h0Z"/><g><g class="mark-rect role-mark layer_0_marks" role="graphics-object" aria-roledescription="rect mark container"><path aria-label="Capture Cost (€): 132300000; plant_name: Ammonia plant (500 kt/y); Plant: Ammonia plant (500 kt/y); Share (%): 0.6" role="graphics-symbol" aria-roledescription="bar" d="M0,0h7.123846153846155v45h-7.123846153846155Z" fill="#4c78a8" opacity="1"/></g></g><path class="foreground" aria-hidden="true" d="" display="none"/></g></g></g><path class="foreground" aria-hidden="true" d="" display="none"/></g></g><g class="mark-text role-mark layer_1_marks" role="graphics-object" aria-roledescription="text mark container"><text aria-label="total_capture_cost_euro: 2052000000; plant_name: Coal-fired power plant (500 MW); cost_label: €2.05B (9.8%)" role="graphics-symbol" aria-roledescription="text mark" text-anchor="start" transform="translate(114.4923076923077,180)" font-family="sans-serif" font-size="17.5px" font-weight="bold" fill="#000000" opacity="1">€2.05B (9.8%)</text><text aria-label="total_capture_cost_euro: 2059200000; plant_name: NGCC power plant (500 MW); cost_label: €2.06B (9.8%)" role="graphics-symbol" aria-roledescription="text mark" text-anchor="start" transform="translate(114.88,130)" font-family="sans-serif" font-size="17.5px" font-weight="bold" fill="#000000" opacity="1">€2.06B (9.8%)</text><text aria-label="total_capture_cost_euro: 4809375000; plant_name: NGCC power plant (1000 MW); cost_label: €4.81B (23.0%)" role="graphics-symbol" aria-roledescription="text mark" text-anchor="start" transform="translate(262.9663461538462,80)" font-family="sans-serif" font-size="17.5px" font-weight="bold" fill="#000000" opacity="1">€4.81B (23.0%)</text><text aria-label="total_capture_cost_euro: 923400000; plant_name: NGCC power plant (400 MW); cost_label: €923.4M (4.4%)" role="graphics-symbol" aria-roledescription="text mark" text-anchor="start" transform="translate(53.72153846153847,230)" font-family="sans-serif" font-size="17.5px" font-weight="bold" fill="#000000" opacity="1">€923.4M (4.4%)</text><text aria-label="total_capture_cost_euro: 288000000; plant_name: Steel mill (300 kt/y); cost_label: €288.0M (1.4%)" role="graphics-symbol" aria-roledescription="text mark" text-anchor="start" transform="translate(19.50769230769231,330)" font-family="sans-serif" font-size="17.5px" font-weight="bold" fill="#000000" opacity="1">€288.0M (1.4%)</text><text aria-label="total_capture_cost_euro: 9849600000; plant_name: Refinery (1 Mbarrels/d); cost_label: €9.85B (47.1%)" role="graphics-symbol" aria-roledescription="text mark" text-anchor="start" transform="translate(534.363076923077,30)" font-family="sans-serif" font-size="17.5px" font-weight="bold" fill="#000000" opacity="1">€9.85B (47.1%)</text><text aria-label="total_capture_cost_euro: 256500000; plant_name: Cement plant (1 Mt/y); cost_label: €256.5M (1.2%)" role="graphics-symbol" aria-roledescription="text mark" text-anchor="start" transform="translate(17.81153846153846,380)" font-family="sans-serif" font-size="17.5px" font-weight="bold" fill="#000000" opacity="1">€256.5M (1.2%)</text><text aria-label="total_capture_cost_euro: 540540000; plant_name: Cement plant (1.5 Mt/y); cost_label: €540.5M (2.6%)" role="graphics-symbol" aria-roledescription="text mark" text-anchor="start" transform="translate(33.105999999999995,280)" font-family="sans-serif" font-size="17.5px" font-weight="bold" fill="#000000" opacity="1">€540.5M (2.6%)</text><text aria-label="total_capture_cost_euro: 132300000; plant_name: Ammonia plant (500 kt/y); cost_label: €132.3M (0.6%)" role="graphics-symbol" aria-roledescription="text mark" text-anchor="start" transform="translate(11.123846153846156,430)" font-family="sans-serif" font-size="17.5px" font-weight="bold" fill="#000000" opacity="1">€132.3M (0.6%)</text></g><g class="mark-group role-title"><g transform="translate(-212.2958984375,-33)"><path class="background" aria-hidden="true" d="M0,0h0v0h0Z" pointer-events="none"/><g><g class="mark-text role-title-text" role="graphics-symbol" aria-roledescription="title" aria-label="Title text 'Total Capture Cost Share'" pointer-events="none"><text text-anchor="start" transform="translate(0,14)" font-family="sans-serif" font-size="18px" font-weight="bold" fill="#000000" opacity="1">Total Capture Cost Share</text></g></g><path class="foreground" aria-hidden="true" d="" pointer-events="none" display="none"/></g></g></g><path class="foreground" aria-hidden="true" d="" display="none"/></g></g></g><defs><clipPath id="clip154"><path d="M0,0L107.4923076923077,0C109.1480527657897,0,110.4923076923077,1.344254926518,110.4923076923077,3L110.4923076923077,42C110.4923076923077,43.655745073482,109.1480527657897,45,107.4923076923077,45L0,45C0,45,0,45,0,45L0,0C0,0,0,0,0,0Z"/></clipPath><clipPath id="clip155"><path d="M0,0L107.88,0C109.53574507348199,0,110.88,1.344254926518,110.88,3L110.88,42C110.88,43.655745073482,109.53574507348199,45,107.88,45L0,45C0,45,0,45,0,45L0,0C0,0,0,0,0,0Z"/></clipPath><clipPath id="clip156"><path d="M0,0L255.9663461538462,0C257.6220912273282,0,258.9663461538462,1.344254926518,258.9663461538462,3L258.9663461538462,42C258.9663461538462,43.655745073482,257.6220912273282,45,255.9663461538462,45L0,45C0,45,0,45,0,45L0,0C0,0,0,0,0,0Z"/></clipPath><clipPath id="clip157"><path d="M0,0L46.72153846153847,0C48.377283535020474,0,49.72153846153847,1.344254926518,49.72153846153847,3L49.72153846153847,42C49.72153846153847,43.655745073482,48.377283535020474,45,46.72153846153847,45L0,45C0,45,0,45,0,45L0,0C0,0,0,0,0,0Z"/></clipPath><clipPath id="clip158"><path d="M0,0L12.507692307692311,0C14.163437381174312,0,15.507692307692311,1.344254926518,15.507692307692311,3L15.507692307692311,42C15.507692307692311,43.655745073482,14.163437381174312,45,12.507692307692311,45L0,45C0,45,0,45,0,45L0,0C0,0,0,0,0,0Z"/></clipPath><clipPath id="clip159"><path d="M0,0L527.363076923077,0C529.0188219965589,0,530.363076923077,1.344254926518,530.363076923077,3L530.363076923077,42C530.363076923077,43.655745073482,529.0188219965589,45,527.363076923077,45L0,45C0,45,0,45,0,45L0,0C0,0,0,0,0,0Z"/></clipPath><clipPath id="clip160"><path d="M0,0L10.811538461538463,0C12.467283535020464,0,13.811538461538463,1.344254926518,13.811538461538463,3L13.811538461538463,42C13.811538461538463,43.655745073482,12.467283535020464,45,10.811538461538463,45L0,45C0,45,0,45,0,45L0,0C0,0,0,0,0,0Z"/></clipPath><clipPath id="clip161"><path d="M0,0L26.105999999999998,0C27.761745073481997,0,29.105999999999998,1.344254926518,29.105999999999998,3L29.105999999999998,42C29.105999999999998,43.655745073482,27.761745073481997,45,26.105999999999998,45L0,45C0,45,0,45,0,45L0,0C0,0,0,0,0,0Z"/></clipPath><clipPath id="clip162"><path d="M0,0L4.123846153846155,0C5.7795912273281544,0,7.123846153846155,1.344254926518,7.123846153846155,3L7.123846153846155,42C7.123846153846155,43.655745073482,5.7795912273281544,45,4.123846153846155,45L0,45C0,45,0,45,0,45L0,0C0,0,0,0,0,0Z"/></clipPath></defs></svg>